NotoSansThaana-ExtraLight.ufo
<glyph name="exclam" format="2">
  <advance width="402.0"/>
  <unicode hex="0021"/>
  <outline>
    <contour>
      <point x="190.578125" y="223.140625" type="curve" smooth="yes"/>
      <point x="202.421875" y="223.140625"/>
      <point x="212.265625" y="228.765625"/>
      <point x="218.0625" y="251.5625" type="curve" smooth="yes"/>
      <point x="231.65625" y="304.546875"/>
      <point x="241.859375" y="342.0"/>
      <point x="286.0625" y="479.0" type="curve" smooth="yes"/>
      <point x="325.21875" y="599.65625"/>
      <point x="356.15625" y="664.1875"/>
      <point x="364.359375" y="683.796875" type="curve" smooth="yes"/>
      <point x="373.171875" y="704.4375"/>
      <point x="375.984375" y="713.875"/>
      <point x="375.984375" y="721.5" type="curve" smooth="yes"/>
      <point x="375.984375" y="728.75"/>
      <point x="370.78125" y="731.765625"/>
      <point x="363.734375" y="731.765625" type="curve" smooth="yes"/>
      <point x="352.109375" y="731.765625"/>
      <point x="343.46875" y="721.734375"/>
      <point x="327.453125" y="690.109375" type="curve" smooth="yes"/>
      <point x="311.4375" y="658.6875"/>
      <point x="275.671875" y="570.78125"/>
      <point x="237.875" y="465.40625" type="curve" smooth="yes"/>
      <point x="201.671875" y="364.015625"/>
      <point x="172.453125" y="262.234375"/>
      <point x="172.453125" y="243.21875" type="curve" smooth="yes"/>
      <point x="172.453125" y="227.75"/>
      <point x="179.90625" y="223.140625"/>
    </contour>
    <contour>
      <point x="158.75" y="-5.21875" type="curve" smooth="yes"/>
      <point x="190.015625" y="-5.21875"/>
      <point x="213.6875" y="17.0625"/>
      <point x="213.6875" y="40.546875" type="curve" smooth="yes"/>
      <point x="213.6875" y="60.0"/>
      <point x="199.84375" y="76.25"/>
      <point x="171.40625" y="76.25" type="curve" smooth="yes"/>
      <point x="139.9375" y="76.25"/>
      <point x="115.875" y="52.765625"/>
      <point x="115.875" y="28.484375" type="curve" smooth="yes"/>
      <point x="115.875" y="8.625"/>
      <point x="131.90625" y="-5.21875"/>
    </contour>
  </outline>
</glyph>
<glyph name="parenleft" format="2">
  <advance width="488.0"/>
  <unicode hex="0028"/>
  <outline>
    <contour>
      <point x="249.59375" y="-240.140625" type="curve" smooth="yes"/>
      <point x="263.859375" y="-240.140625"/>
      <point x="270.703125" y="-229.6875"/>
      <point x="270.703125" y="-220.25" type="curve" smooth="yes"/>
      <point x="270.703125" y="-212.625"/>
      <point x="263.5" y="-202.796875"/>
      <point x="245.09375" y="-182.59375" type="curve" smooth="yes"/>
      <point x="196.265625" y="-130.96875"/>
      <point x="138.984375" y="-40.8125"/>
      <point x="138.984375" y="92.1875" type="curve" smooth="yes"/>
      <point x="138.984375" y="327.40625"/>
      <point x="296.859375" y="588.109375"/>
      <point x="522.578125" y="675.671875" type="curve" smooth="yes"/>
      <point x="561.546875" y="690.859375"/>
      <point x="568.765625" y="695.28125"/>
      <point x="568.765625" y="704.328125" type="curve" smooth="yes"/>
      <point x="568.765625" y="711.5625"/>
      <point x="562.734375" y="718.1875"/>
      <point x="551.296875" y="718.1875" type="curve" smooth="yes"/>
      <point x="528.796875" y="718.1875"/>
      <point x="490.5" y="703.71875"/>
      <point x="468.59375" y="691.234375" type="curve" smooth="yes"/>
      <point x="245.59375" y="586.375"/>
      <point x="99.953125" y="326.3125"/>
      <point x="99.953125" y="92.1875" type="curve" smooth="yes"/>
      <point x="99.953125" y="-55.984375"/>
      <point x="160.625" y="-160.40625"/>
      <point x="203.90625" y="-208.296875" type="curve" smooth="yes"/>
      <point x="225.921875" y="-232.3125"/>
      <point x="237.765625" y="-240.140625"/>
    </contour>
  </outline>
</glyph>
<glyph name="parenright" format="2">
  <advance width="488.0"/>
  <unicode hex="0029"/>
  <outline>
    <contour>
      <point x="-31.96875" y="-240.140625" type="curve" smooth="yes"/>
      <point x="-14.546875" y="-240.140625"/>
      <point x="16.234375" y="-230.953125"/>
      <point x="33.875" y="-222.734375" type="curve" smooth="yes"/>
      <point x="264.4375" y="-115.96875"/>
      <point x="419.375" y="145.828125"/>
      <point x="419.375" y="386.65625" type="curve" smooth="yes"/>
      <point x="419.375" y="534.828125"/>
      <point x="358.5" y="639.453125"/>
      <point x="315.421875" y="686.9375" type="curve" smooth="yes"/>
      <point x="293.40625" y="711.15625"/>
      <point x="281.5625" y="718.984375"/>
      <point x="269.734375" y="718.984375" type="curve" smooth="yes"/>
      <point x="255.46875" y="718.984375"/>
      <point x="248.625" y="708.53125"/>
      <point x="248.625" y="699.09375" type="curve" smooth="yes"/>
      <point x="248.625" y="691.46875"/>
      <point x="255.03125" y="680.84375"/>
      <point x="274.234375" y="661.4375" type="curve" smooth="yes"/>
      <point x="324.65625" y="610.609375"/>
      <point x="380.34375" y="519.65625"/>
      <point x="380.34375" y="386.65625" type="curve" smooth="yes"/>
      <point x="380.34375" y="151.234375"/>
      <point x="222.265625" y="-110.0625"/>
      <point x="-3.25" y="-197.625" type="curve" smooth="yes"/>
      <point x="-42.421875" y="-212.8125"/>
      <point x="-49.4375" y="-217.4375"/>
      <point x="-49.4375" y="-226.28125" type="curve" smooth="yes"/>
      <point x="-49.4375" y="-233.515625"/>
      <point x="-43.40625" y="-240.140625"/>
    </contour>
  </outline>
</glyph>
<glyph name="comma" format="2">
  <advance width="364.0"/>
  <unicode hex="002C"/>
  <outline>
    <contour>
      <point x="128.484375" y="-116.046875" type="curve" smooth="yes"/>
      <point x="138.3125" y="-116.046875"/>
      <point x="148.53125" y="-106.234375"/>
      <point x="164.3125" y="-85.875" type="curve" smooth="yes"/>
      <point x="180.171875" y="-67.84375"/>
      <point x="222.28125" y="-4.53125"/>
      <point x="222.28125" y="29.34375" type="curve" smooth="yes"/>
      <point x="222.28125" y="58.609375"/>
      <point x="205.234375" y="69.859375"/>
      <point x="180.59375" y="69.859375" type="curve" smooth="yes"/>
      <point x="152.125" y="69.859375"/>
      <point x="131.84375" y="49.78125"/>
      <point x="131.84375" y="26.703125" type="curve" smooth="yes"/>
      <point x="131.84375" y="8.453125"/>
      <point x="149.265625" y="-6.1875"/>
      <point x="174.296875" y="-10.578125" type="curve"/>
      <point x="162.09375" y="-46.5625"/>
      <point x="139.6875" y="-76.734375"/>
      <point x="128.84375" y="-88.96875" type="curve" smooth="yes"/>
      <point x="121.4375" y="-97.96875"/>
      <point x="118.03125" y="-102.171875"/>
      <point x="118.03125" y="-107.59375" type="curve" smooth="yes"/>
      <point x="118.03125" y="-111.59375"/>
      <point x="121.625" y="-116.046875"/>
    </contour>
  </outline>
</glyph>
<glyph name="period" format="2">
  <advance width="364.0"/>
  <unicode hex="002E"/>
  <outline>
    <contour>
      <point x="157.734375" y="-5.21875" type="curve" smooth="yes"/>
      <point x="189.0" y="-5.21875"/>
      <point x="212.671875" y="17.0625"/>
      <point x="212.671875" y="40.546875" type="curve" smooth="yes"/>
      <point x="212.671875" y="60.0"/>
      <point x="198.828125" y="76.25"/>
      <point x="170.390625" y="76.25" type="curve" smooth="yes"/>
      <point x="138.921875" y="76.25"/>
      <point x="114.859375" y="52.765625"/>
      <point x="114.859375" y="28.484375" type="curve" smooth="yes"/>
      <point x="114.859375" y="8.625"/>
      <point x="130.890625" y="-5.21875"/>
    </contour>
  </outline>
</glyph>
<glyph name="colon" format="2">
  <advance width="364.0"/>
  <unicode hex="003A"/>
  <outline>
    <contour>
      <point x="188.734375" y="252.953125" type="curve" smooth="yes"/>
      <point x="220.203125" y="252.953125"/>
      <point x="244.671875" y="276.03125"/>
      <point x="244.671875" y="300.3125" type="curve" smooth="yes"/>
      <point x="244.671875" y="319.765625"/>
      <point x="228.4375" y="334.421875"/>
      <point x="201.59375" y="334.421875" type="curve" smooth="yes"/>
      <point x="170.125" y="334.421875"/>
      <point x="146.859375" y="311.734375"/>
      <point x="146.859375" y="288.25" type="curve" smooth="yes"/>
      <point x="146.859375" y="268.390625"/>
      <point x="160.5" y="252.953125"/>
    </contour>
    <contour>
      <point x="157.734375" y="-5.21875" type="curve" smooth="yes"/>
      <point x="189.0" y="-5.21875"/>
      <point x="212.671875" y="17.0625"/>
      <point x="212.671875" y="40.546875" type="curve" smooth="yes"/>
      <point x="212.671875" y="60.0"/>
      <point x="198.828125" y="76.25"/>
      <point x="170.390625" y="76.25" type="curve" smooth="yes"/>
      <point x="138.921875" y="76.25"/>
      <point x="114.859375" y="52.765625"/>
      <point x="114.859375" y="28.484375" type="curve" smooth="yes"/>
      <point x="114.859375" y="8.625"/>
      <point x="130.890625" y="-5.21875"/>
    </contour>
  </outline>
</glyph>
<glyph name="semicolon" format="2">
  <advance width="364.0"/>
  <unicode hex="003B"/>
  <outline>
    <contour>
      <point x="114.5" y="-116.046875" type="curve" smooth="yes"/>
      <point x="123.53125" y="-116.046875"/>
      <point x="135.34375" y="-106.03125"/>
      <point x="150.328125" y="-85.875" type="curve" smooth="yes"/>
      <point x="164.59375" y="-68.84375"/>
      <point x="208.296875" y="-4.53125"/>
      <point x="208.296875" y="29.34375" type="curve" smooth="yes"/>
      <point x="208.296875" y="58.609375"/>
      <point x="191.25" y="69.859375"/>
      <point x="166.609375" y="69.859375" type="curve" smooth="yes"/>
      <point x="139.140625" y="69.859375"/>
      <point x="118.0625" y="49.78125"/>
      <point x="118.0625" y="26.703125" type="curve" smooth="yes"/>
      <point x="118.0625" y="8.453125"/>
      <point x="135.28125" y="-6.1875"/>
      <point x="160.3125" y="-10.578125" type="curve"/>
      <point x="148.109375" y="-46.359375"/>
      <point x="126.109375" y="-76.53125"/>
      <point x="115.0625" y="-88.96875" type="curve" smooth="yes"/>
      <point x="107.453125" y="-98.171875"/>
      <point x="104.046875" y="-102.171875"/>
      <point x="104.046875" y="-107.59375" type="curve" smooth="yes"/>
      <point x="104.046875" y="-110.796875"/>
      <point x="107.640625" y="-116.046875"/>
    </contour>
    <contour>
      <point x="188.734375" y="252.953125" type="curve" smooth="yes"/>
      <point x="220.203125" y="252.953125"/>
      <point x="244.671875" y="276.03125"/>
      <point x="244.671875" y="300.3125" type="curve" smooth="yes"/>
      <point x="244.671875" y="319.765625"/>
      <point x="228.4375" y="334.421875"/>
      <point x="201.59375" y="334.421875" type="curve" smooth="yes"/>
      <point x="170.125" y="334.421875"/>
      <point x="146.859375" y="311.734375"/>
      <point x="146.859375" y="288.25" type="curve" smooth="yes"/>
      <point x="146.859375" y="268.390625"/>
      <point x="160.5" y="252.953125"/>
    </contour>
  </outline>
</glyph>
<glyph name="uni060C" format="2">
  <advance width="300.25"/>
  <unicode hex="060C"/>
  <outline>
    <contour>
      <point x="132.6875" y="-9.203125" type="curve" smooth="yes"/>
      <point x="159.5625" y="-9.203125"/>
      <point x="181.4375" y="11.078125"/>
      <point x="181.4375" y="33.953125" type="curve" smooth="yes"/>
      <point x="181.4375" y="52.203125"/>
      <point x="164.015625" y="67.046875"/>
      <point x="138.984375" y="71.4375" type="curve"/>
      <point x="151.1875" y="107.421875"/>
      <point x="173.59375" y="137.59375"/>
      <point x="184.4375" y="149.828125" type="curve" smooth="yes"/>
      <point x="191.84375" y="158.828125"/>
      <point x="195.25" y="163.03125"/>
      <point x="195.25" y="168.453125" type="curve" smooth="yes"/>
      <point x="195.25" y="171.65625"/>
      <point x="191.65625" y="176.90625"/>
      <point x="184.796875" y="176.90625" type="curve" smooth="yes"/>
      <point x="176.375" y="176.90625"/>
      <point x="164.359375" y="167.09375"/>
      <point x="148.96875" y="146.53125" type="curve" smooth="yes"/>
      <point x="134.90625" y="129.703125"/>
      <point x="91.0" y="65.390625"/>
      <point x="91.0" y="31.3125" type="curve" smooth="yes"/>
      <point x="91.0" y="2.046875"/>
      <point x="107.25" y="-9.203125"/>
    </contour>
  </outline>
</glyph>
<glyph name="uni061B" format="2">
  <advance width="364.0"/>
  <unicode hex="061B"/>
  <outline>
    <contour>
      <point x="192.71875" y="258.53125" type="curve" smooth="yes"/>
      <point x="220.390625" y="258.53125"/>
      <point x="241.46875" y="278.8125"/>
      <point x="241.46875" y="301.6875" type="curve" smooth="yes"/>
      <point x="241.46875" y="319.9375"/>
      <point x="224.046875" y="334.78125"/>
      <point x="199.015625" y="339.171875" type="curve"/>
      <point x="211.21875" y="375.15625"/>
      <point x="233.625" y="405.328125"/>
      <point x="244.46875" y="417.359375" type="curve" smooth="yes"/>
      <point x="252.078125" y="426.5625"/>
      <point x="255.28125" y="430.765625"/>
      <point x="255.28125" y="436.1875" type="curve" smooth="yes"/>
      <point x="255.28125" y="439.390625"/>
      <point x="251.6875" y="444.640625"/>
      <point x="244.828125" y="444.640625" type="curve" smooth="yes"/>
      <point x="236.40625" y="444.640625"/>
      <point x="224.1875" y="434.625"/>
      <point x="209.0" y="414.265625" type="curve" smooth="yes"/>
      <point x="194.9375" y="397.4375"/>
      <point x="151.03125" y="333.125"/>
      <point x="151.03125" y="299.046875" type="curve" smooth="yes"/>
      <point x="151.03125" y="269.78125"/>
      <point x="168.078125" y="258.53125"/>
    </contour>
    <contour>
      <point x="157.734375" y="-5.21875" type="curve" smooth="yes"/>
      <point x="189.0" y="-5.21875"/>
      <point x="212.671875" y="17.0625"/>
      <point x="212.671875" y="40.546875" type="curve" smooth="yes"/>
      <point x="212.671875" y="60.0"/>
      <point x="198.828125" y="76.25"/>
      <point x="170.390625" y="76.25" type="curve" smooth="yes"/>
      <point x="138.921875" y="76.25"/>
      <point x="114.859375" y="52.765625"/>
      <point x="114.859375" y="28.484375" type="curve" smooth="yes"/>
      <point x="114.859375" y="8.625"/>
      <point x="130.890625" y="-5.21875"/>
    </contour>
  </outline>
</glyph>
<glyph name="uni061F" format="2">
  <advance width="479.0"/>
  <unicode hex="061F"/>
  <outline>
    <contour>
      <point x="215.8125" y="208.609375" type="curve" smooth="yes"/>
      <point x="225.640625" y="208.609375"/>
      <point x="237.46875" y="226.171875"/>
      <point x="247.484375" y="243.96875" type="curve" smooth="yes"/>
      <point x="258.3125" y="262.78125"/>
      <point x="264.921875" y="285.984375"/>
      <point x="264.921875" y="316.609375" type="curve" smooth="yes"/>
      <point x="264.921875" y="351.25"/>
      <point x="244.90625" y="388.640625"/>
      <point x="224.09375" y="421.25" type="curve" smooth="yes"/>
      <point x="201.90625" y="456.421875"/>
      <point x="178.125" y="490.40625"/>
      <point x="178.125" y="538.75" type="curve" smooth="yes"/>
      <point x="178.125" y="627.46875"/>
      <point x="259.4375" y="680.609375"/>
      <point x="348.546875" y="680.609375" type="curve" smooth="yes"/>
      <point x="390.6875" y="680.609375"/>
      <point x="424.84375" y="656.453125"/>
      <point x="444.84375" y="642.65625" type="curve" smooth="yes"/>
      <point x="461.0625" y="631.046875"/>
      <point x="471.890625" y="621.234375"/>
      <point x="483.3125" y="621.234375" type="curve" smooth="yes"/>
      <point x="490.15625" y="621.234375"/>
      <point x="503.234375" y="631.703125"/>
      <point x="503.234375" y="644.5625" type="curve" smooth="yes"/>
      <point x="503.234375" y="649.578125"/>
      <point x="500.4375" y="656.796875"/>
      <point x="490.796875" y="664.234375" type="curve" smooth="yes"/>
      <point x="471.34375" y="680.484375"/>
      <point x="418.96875" y="714.0"/>
      <point x="351.390625" y="714.0" type="curve" smooth="yes"/>
      <point x="239.3125" y="714.0"/>
      <point x="143.9375" y="640.125"/>
      <point x="143.9375" y="536.953125" type="curve" smooth="yes"/>
      <point x="143.9375" y="485.765625"/>
      <point x="165.71875" y="448.96875"/>
      <point x="186.703125" y="417.1875" type="curve" smooth="yes"/>
      <point x="210.09375" y="381.796875"/>
      <point x="228.296875" y="347.015625"/>
      <point x="228.296875" y="317.828125" type="curve" smooth="yes"/>
      <point x="228.296875" y="285.0625"/>
      <point x="215.3125" y="268.65625"/>
      <point x="208.109375" y="255.84375" type="curve" smooth="yes"/>
      <point x="198.921875" y="240.65625"/>
      <point x="193.125" y="229.453125"/>
      <point x="193.125" y="222.828125" type="curve" smooth="yes"/>
      <point x="193.125" y="212.796875"/>
      <point x="206.1875" y="208.609375"/>
    </contour>
    <contour>
      <point x="161.59375" y="-5.21875" type="curve" smooth="yes"/>
      <point x="192.859375" y="-5.21875"/>
      <point x="216.53125" y="17.0625"/>
      <point x="216.53125" y="40.546875" type="curve" smooth="yes"/>
      <point x="216.53125" y="60.0"/>
      <point x="202.890625" y="76.25"/>
      <point x="174.453125" y="76.25" type="curve" smooth="yes"/>
      <point x="142.984375" y="76.25"/>
      <point x="118.921875" y="52.765625"/>
      <point x="118.921875" y="28.484375" type="curve" smooth="yes"/>
      <point x="118.921875" y="8.625"/>
      <point x="134.953125" y="-5.21875"/>
    </contour>
  </outline>
</glyph>
<glyph name="uni0660" format="2">
  <advance width="314.0"/>
  <unicode hex="0660"/>
  <outline>
    <contour>
      <point x="116.921875" y="383.828125" type="curve" smooth="yes"/>
      <point x="116.921875" y="359.1875"/>
      <point x="142.34375" y="320.921875"/>
      <point x="162.15625" y="320.921875" type="curve" smooth="yes"/>
      <point x="174.390625" y="320.921875"/>
      <point x="195.65625" y="330.734375"/>
      <point x="195.65625" y="347.359375" type="curve" smooth="yes"/>
      <point x="195.65625" y="377.8125"/>
      <point x="178.828125" y="415.078125"/>
      <point x="158.59375" y="415.078125" type="curve" smooth="yes"/>
      <point x="140.5625" y="415.078125"/>
      <point x="116.921875" y="403.859375"/>
    </contour>
  </outline>
</glyph>
<glyph name="uni0661" format="2">
  <advance width="316.0"/>
  <unicode hex="0661"/>
  <outline>
    <contour>
      <point x="173.609375" y="145.546875" type="curve" smooth="yes"/>
      <point x="182.0625" y="145.546875"/>
      <point x="186.703125" y="150.96875"/>
      <point x="190.328125" y="161.203125" type="curve" smooth="yes"/>
      <point x="194.359375" y="171.453125"/>
      <point x="201.359375" y="225.65625"/>
      <point x="201.359375" y="283.03125" type="curve" smooth="yes"/>
      <point x="201.359375" y="355.671875"/>
      <point x="192.765625" y="439.25"/>
      <point x="173.171875" y="528.828125" type="curve" smooth="yes"/>
      <point x="157.375" y="600.8125"/>
      <point x="133.59375" y="665.1875"/>
      <point x="115.375" y="690.21875" type="curve" smooth="yes"/>
      <point x="107.953125" y="701.25"/>
      <point x="100.125" y="704.25"/>
      <point x="91.890625" y="704.25" type="curve" smooth="yes"/>
      <point x="80.03125" y="704.25"/>
      <point x="67.75" y="695.203125"/>
      <point x="67.75" y="683.53125" type="curve" smooth="yes"/>
      <point x="67.75" y="675.703125"/>
      <point x="70.359375" y="667.28125"/>
      <point x="76.96875" y="656.0625" type="curve" smooth="yes"/>
      <point x="101.375" y="612.453125"/>
      <point x="115.578125" y="575.0"/>
      <point x="134.5625" y="498.65625" type="curve" smooth="yes"/>
      <point x="154.140625" y="421.328125"/>
      <point x="165.9375" y="336.78125"/>
      <point x="165.9375" y="272.03125" type="curve" smooth="yes"/>
      <point x="165.9375" y="237.25"/>
      <point x="164.9375" y="217.421875"/>
      <point x="163.734375" y="201.015625" type="curve" smooth="yes"/>
      <point x="162.53125" y="182.03125"/>
      <point x="160.53125" y="166.03125"/>
      <point x="160.53125" y="161.203125" type="curve" smooth="yes"/>
      <point x="160.53125" y="150.375"/>
      <point x="165.5625" y="145.546875"/>
    </contour>
  </outline>
</glyph>
<glyph name="uni0662" format="2">
  <advance width="421.046875"/>
  <unicode hex="0662"/>
  <outline>
    <contour>
      <point x="377.171875" y="685.859375" type="curve" smooth="yes"/>
      <point x="368.75" y="685.859375"/>
      <point x="361.515625" y="678.453125"/>
      <point x="355.5" y="667.4375" type="curve" smooth="yes"/>
      <point x="330.09375" y="618.46875"/>
      <point x="292.71875" y="589.6875"/>
      <point x="239.140625" y="589.6875" type="curve" smooth="yes"/>
      <point x="205.53125" y="589.6875"/>
      <point x="162.921875" y="596.90625"/>
      <point x="132.734375" y="625.90625" type="curve"/>
      <point x="118.953125" y="655.65625"/>
      <point x="103.578125" y="680.21875"/>
      <point x="88.796875" y="695.40625" type="curve" smooth="yes"/>
      <point x="84.171875" y="700.640625"/>
      <point x="77.9375" y="703.453125"/>
      <point x="71.3125" y="703.453125" type="curve" smooth="yes"/>
      <point x="58.84375" y="703.453125"/>
      <point x="48.171875" y="695.203125"/>
      <point x="48.171875" y="683.34375" type="curve" smooth="yes"/>
      <point x="48.171875" y="676.703125"/>
      <point x="49.78125" y="670.875"/>
      <point x="54.0" y="664.84375" type="curve" smooth="yes"/>
      <point x="121.59375" y="572.421875"/>
      <point x="178.71875" y="392.046875"/>
      <point x="178.71875" y="272.03125" type="curve" smooth="yes"/>
      <point x="178.71875" y="236.4375"/>
      <point x="177.71875" y="217.421875"/>
      <point x="176.71875" y="201.015625" type="curve" smooth="yes"/>
      <point x="175.71875" y="182.03125"/>
      <point x="173.71875" y="166.03125"/>
      <point x="173.71875" y="161.203125" type="curve" smooth="yes"/>
      <point x="173.71875" y="150.375"/>
      <point x="179.15625" y="145.546875"/>
      <point x="187.203125" y="145.546875" type="curve" smooth="yes"/>
      <point x="195.65625" y="145.546875"/>
      <point x="199.6875" y="150.96875"/>
      <point x="203.3125" y="161.203125" type="curve" smooth="yes"/>
      <point x="207.34375" y="171.453125"/>
      <point x="214.34375" y="225.65625"/>
      <point x="214.34375" y="281.234375" type="curve" smooth="yes"/>
      <point x="214.34375" y="367.21875"/>
      <point x="187.375" y="489.15625"/>
      <point x="151.203125" y="581.734375" type="curve"/>
      <point x="179.8125" y="562.515625"/>
      <point x="210.625" y="555.109375"/>
      <point x="243.84375" y="555.109375" type="curve" smooth="yes"/>
      <point x="297.234375" y="555.109375"/>
      <point x="342.828125" y="576.3125"/>
      <point x="381.21875" y="638.0625" type="curve" smooth="yes"/>
      <point x="388.234375" y="648.875"/>
      <point x="393.046875" y="658.890625"/>
      <point x="393.046875" y="670.75" type="curve" smooth="yes"/>
      <point x="393.046875" y="680.015625"/>
      <point x="386.8125" y="685.859375"/>
    </contour>
  </outline>
</glyph>
<glyph name="uni0663" format="2">
  <advance width="469.125"/>
  <unicode hex="0663"/>
  <outline>
    <contour>
      <point x="190.859375" y="145.546875" type="curve" smooth="yes"/>
      <point x="199.109375" y="145.546875"/>
      <point x="203.34375" y="150.96875"/>
      <point x="206.765625" y="161.203125" type="curve" smooth="yes"/>
      <point x="210.59375" y="171.453125"/>
      <point x="217.796875" y="225.65625"/>
      <point x="217.796875" y="287.421875" type="curve" smooth="yes"/>
      <point x="217.796875" y="373.359375"/>
      <point x="191.4375" y="478.46875"/>
      <point x="159.671875" y="561.234375" type="curve"/>
      <point x="172.234375" y="554.859375"/>
      <point x="185.984375" y="552.46875"/>
      <point x="201.734375" y="552.46875" type="curve" smooth="yes"/>
      <point x="225.96875" y="552.46875"/>
      <point x="247.375" y="563.28125"/>
      <point x="267.984375" y="587.28125" type="curve"/>
      <point x="287.390625" y="573.875"/>
      <point x="305.609375" y="568.875"/>
      <point x="330.03125" y="568.875" type="curve" smooth="yes"/>
      <point x="367.484375" y="568.875"/>
      <point x="400.296875" y="598.3125"/>
      <point x="430.078125" y="664.875" type="curve" smooth="yes"/>
      <point x="435.6875" y="677.296875"/>
      <point x="439.296875" y="687.53125"/>
      <point x="439.296875" y="696.140625" type="curve" smooth="yes"/>
      <point x="439.296875" y="705.609375"/>
      <point x="431.234375" y="711.25"/>
      <point x="421.796875" y="711.25" type="curve" smooth="yes"/>
      <point x="412.5625" y="711.25"/>
      <point x="407.140625" y="704.03125"/>
      <point x="402.125" y="689.375" type="curve" smooth="yes"/>
      <point x="383.140625" y="636.203125"/>
      <point x="360.34375" y="599.40625"/>
      <point x="325.15625" y="599.40625" type="curve" smooth="yes"/>
      <point x="312.1875" y="599.40625"/>
      <point x="297.421875" y="600.40625"/>
      <point x="283.453125" y="608.78125" type="curve"/>
      <point x="292.234375" y="621.953125"/>
      <point x="301.21875" y="639.125"/>
      <point x="310.203125" y="659.6875" type="curve" smooth="yes"/>
      <point x="315.203125" y="670.890625"/>
      <point x="318.609375" y="679.3125"/>
      <point x="318.609375" y="689.34375" type="curve" smooth="yes"/>
      <point x="318.609375" y="698.203125"/>
      <point x="310.75" y="704.640625"/>
      <point x="300.5" y="704.640625" type="curve" smooth="yes"/>
      <point x="291.671875" y="704.640625"/>
      <point x="285.234375" y="698.234375"/>
      <point x="280.625" y="685.203125" type="curve" smooth="yes"/>
      <point x="261.234375" y="625.03125"/>
      <point x="235.0625" y="585.234375"/>
      <point x="194.875" y="585.234375" type="curve" smooth="yes"/>
      <point x="178.921875" y="585.234375"/>
      <point x="160.578125" y="587.625"/>
      <point x="144.421875" y="600.578125" type="curve"/>
      <point x="125.625" y="644.171875"/>
      <point x="105.625" y="678.375"/>
      <point x="89.609375" y="695.40625" type="curve" smooth="yes"/>
      <point x="84.578125" y="701.25"/>
      <point x="78.546875" y="703.65625"/>
      <point x="70.90625" y="703.65625" type="curve" smooth="yes"/>
      <point x="59.25" y="703.65625"/>
      <point x="47.96875" y="695.203125"/>
      <point x="47.96875" y="683.34375" type="curve" smooth="yes"/>
      <point x="47.96875" y="676.703125"/>
      <point x="49.578125" y="670.875"/>
      <point x="54.8125" y="664.03125" type="curve" smooth="yes"/>
      <point x="124.03125" y="572.421875"/>
      <point x="182.375" y="400.390625"/>
      <point x="182.375" y="272.03125" type="curve" smooth="yes"/>
      <point x="182.375" y="237.25"/>
      <point x="181.375" y="217.421875"/>
      <point x="180.171875" y="201.015625" type="curve" smooth="yes"/>
      <point x="178.96875" y="182.03125"/>
      <point x="177.171875" y="166.03125"/>
      <point x="177.171875" y="161.203125" type="curve" smooth="yes"/>
      <point x="177.171875" y="150.375"/>
      <point x="182.8125" y="145.546875"/>
    </contour>
  </outline>
</glyph>
<glyph name="uni0664" format="2">
  <advance width="396.078125"/>
  <unicode hex="0664"/>
  <outline>
    <contour>
      <point x="299.4375" y="138.171875" type="curve" smooth="yes"/>
      <point x="351.0625" y="138.171875"/>
      <point x="368.109375" y="146.40625"/>
      <point x="368.109375" y="163.484375" type="curve" smooth="yes"/>
      <point x="368.109375" y="179.9375"/>
      <point x="363.28125" y="186.171875"/>
      <point x="352.046875" y="186.171875" type="curve" smooth="yes"/>
      <point x="337.609375" y="186.171875"/>
      <point x="322.015625" y="181.375"/>
      <point x="295.40625" y="181.375" type="curve" smooth="yes"/>
      <point x="220.046875" y="181.375"/>
      <point x="125.984375" y="201.78125"/>
      <point x="125.984375" y="262.90625" type="curve" smooth="yes"/>
      <point x="125.984375" y="314.640625"/>
      <point x="174.109375" y="376.953125"/>
      <point x="256.796875" y="434.296875" type="curve" smooth="yes"/>
      <point x="270.234375" y="443.734375"/>
      <point x="279.09375" y="447.765625"/>
      <point x="279.09375" y="458.0" type="curve" smooth="yes"/>
      <point x="279.09375" y="469.625"/>
      <point x="272.296875" y="476.4375"/>
      <point x="246.484375" y="487.4375" type="curve" smooth="yes"/>
      <point x="218.0625" y="499.640625"/>
      <point x="136.375" y="536.1875"/>
      <point x="97.421875" y="570.140625" type="curve"/>
      <point x="123.4375" y="594.9375"/>
      <point x="204.15625" y="648.859375"/>
      <point x="238.40625" y="666.28125" type="curve" smooth="yes"/>
      <point x="255.625" y="674.890625"/>
      <point x="259.84375" y="680.3125"/>
      <point x="259.84375" y="686.546875" type="curve" smooth="yes"/>
      <point x="259.84375" y="693.390625"/>
      <point x="253.203125" y="703.0625"/>
      <point x="241.75" y="703.0625" type="curve" smooth="yes"/>
      <point x="230.53125" y="703.0625"/>
      <point x="217.890625" y="698.453125"/>
      <point x="196.65625" y="684.234375" type="curve" smooth="yes"/>
      <point x="164.828125" y="663.421875"/>
      <point x="110.453125" y="620.640625"/>
      <point x="85.59375" y="599.0" type="curve" smooth="yes"/>
      <point x="71.578125" y="586.390625"/>
      <point x="58.984375" y="574.984375"/>
      <point x="58.984375" y="563.953125" type="curve" smooth="yes"/>
      <point x="58.984375" y="555.328125"/>
      <point x="69.59375" y="547.90625"/>
      <point x="78.40625" y="541.296875" type="curve" smooth="yes"/>
      <point x="117.984375" y="511.515625"/>
      <point x="189.9375" y="478.34375"/>
      <point x="238.25" y="456.390625" type="curve"/>
      <point x="144.921875" y="392.84375"/>
      <point x="84.734375" y="323.28125"/>
      <point x="84.734375" y="261.046875" type="curve" smooth="yes"/>
      <point x="84.734375" y="180.8125"/>
      <point x="201.5625" y="138.171875"/>
    </contour>
  </outline>
</glyph>
<glyph name="uni0665" format="2">
  <advance width="432.390625"/>
  <unicode hex="0665"/>
  <outline>
    <contour>
      <point x="218.265625" y="185.890625" type="curve" smooth="yes"/>
      <point x="334.375" y="185.890625"/>
      <point x="384.421875" y="257.53125"/>
      <point x="384.421875" y="345.578125" type="curve" smooth="yes"/>
      <point x="384.421875" y="489.21875"/>
      <point x="302.171875" y="658.0625"/>
      <point x="209.515625" y="658.0625" type="curve" smooth="yes"/>
      <point x="136.25" y="658.0625"/>
      <point x="47.96875" y="477.421875"/>
      <point x="47.96875" y="335.390625" type="curve" smooth="yes"/>
      <point x="47.96875" y="232.921875"/>
      <point x="113.40625" y="185.890625"/>
    </contour>
    <contour>
      <point x="219.265625" y="228.09375" type="curve" smooth="yes"/>
      <point x="134.71875" y="228.09375"/>
      <point x="82.953125" y="267.0625"/>
      <point x="82.953125" y="339.40625" type="curve" smooth="yes"/>
      <point x="82.953125" y="456.140625"/>
      <point x="153.53125" y="616.453125"/>
      <point x="205.515625" y="616.453125" type="curve" smooth="yes"/>
      <point x="289.0625" y="616.453125"/>
      <point x="349.625" y="459.734375"/>
      <point x="349.625" y="345.796875" type="curve" smooth="yes"/>
      <point x="349.625" y="276.453125"/>
      <point x="307.4375" y="228.09375"/>
    </contour>
  </outline>
</glyph>
<glyph name="uni0666" format="2">
  <advance width="450.75"/>
  <unicode hex="0666"/>
  <outline>
    <contour>
      <point x="387.25" y="145.546875" type="curve" smooth="yes"/>
      <point x="399.515625" y="145.546875"/>
      <point x="412.78125" y="153.796875"/>
      <point x="412.78125" y="165.65625" type="curve" smooth="yes"/>
      <point x="412.78125" y="172.296875"/>
      <point x="410.375" y="181.71875"/>
      <point x="400.171875" y="198.328125" type="curve" smooth="yes"/>
      <point x="384.953125" y="222.765625"/>
      <point x="365.5625" y="269.53125"/>
      <point x="346.984375" y="341.40625" type="curve" smooth="yes"/>
      <point x="325.578125" y="421.375"/>
      <point x="312.96875" y="509.375"/>
      <point x="312.96875" y="576.96875" type="curve" smooth="yes"/>
      <point x="312.96875" y="611.75"/>
      <point x="313.96875" y="631.578125"/>
      <point x="315.171875" y="647.984375" type="curve" smooth="yes"/>
      <point x="316.375" y="666.96875"/>
      <point x="318.171875" y="682.96875"/>
      <point x="318.171875" y="687.796875" type="curve" smooth="yes"/>
      <point x="318.171875" y="698.625"/>
      <point x="312.53125" y="703.453125"/>
      <point x="304.484375" y="703.453125" type="curve" smooth="yes"/>
      <point x="297.03125" y="703.453125"/>
      <point x="292.59375" y="698.828125"/>
      <point x="288.96875" y="689.984375" type="curve"/>
      <point x="270.765625" y="673.40625"/>
      <point x="226.21875" y="658.03125"/>
      <point x="172.5" y="658.03125" type="curve" smooth="yes"/>
      <point x="134.484375" y="658.03125"/>
      <point x="109.65625" y="663.046875"/>
      <point x="78.6875" y="676.4375" type="curve" smooth="yes"/>
      <point x="56.484375" y="685.84375"/>
      <point x="46.0625" y="694.03125"/>
      <point x="37.640625" y="694.03125" type="curve" smooth="yes"/>
      <point x="29.0" y="694.03125"/>
      <point x="21.96875" y="688.0"/>
      <point x="21.96875" y="675.9375" type="curve" smooth="yes"/>
      <point x="21.96875" y="663.28125"/>
      <point x="28.78125" y="652.25"/>
      <point x="44.8125" y="643.4375" type="curve" smooth="yes"/>
      <point x="75.796875" y="627.25"/>
      <point x="123.1875" y="621.4375"/>
      <point x="159.421875" y="621.4375" type="curve" smooth="yes"/>
      <point x="207.96875" y="621.4375"/>
      <point x="253.125" y="635.59375"/>
      <point x="282.328125" y="652.765625" type="curve"/>
      <point x="279.734375" y="632.390625"/>
      <point x="276.546875" y="602.671875"/>
      <point x="276.546875" y="575.546875" type="curve" smooth="yes"/>
      <point x="276.546875" y="511.296875"/>
      <point x="285.96875" y="403.46875"/>
      <point x="305.0" y="324.609375" type="curve" smooth="yes"/>
      <point x="322.984375" y="245.921875"/>
      <point x="352.9375" y="172.4375"/>
      <point x="363.375" y="157.984375" type="curve" smooth="yes"/>
      <point x="370.59375" y="148.15625"/>
      <point x="380.421875" y="145.546875"/>
    </contour>
  </outline>
</glyph>
<glyph name="uni0667" format="2">
  <advance width="431.390625"/>
  <unicode hex="0667"/>
  <outline>
    <contour>
      <point x="245.421875" y="183.671875" type="curve" smooth="yes"/>
      <point x="280.84375" y="350.421875"/>
      <point x="355.203125" y="548.109375"/>
      <point x="400.0" y="637.703125" type="curve" smooth="yes"/>
      <point x="406.0" y="649.703125"/>
      <point x="408.21875" y="655.9375"/>
      <point x="408.21875" y="662.15625" type="curve" smooth="yes"/>
      <point x="408.21875" y="669.390625"/>
      <point x="398.765625" y="676.84375"/>
      <point x="382.46875" y="676.84375" type="curve" smooth="yes"/>
      <point x="369.640625" y="676.84375"/>
      <point x="363.015625" y="665.828125"/>
      <point x="358.203125" y="655.0" type="curve" smooth="yes"/>
      <point x="308.234375" y="542.296875"/>
      <point x="258.265625" y="401.734375"/>
      <point x="222.6875" y="215.84375" type="curve"/>
      <point x="176.296875" y="451.125"/>
      <point x="102.96875" y="615.875"/>
      <point x="68.796875" y="658.03125" type="curve" smooth="yes"/>
      <point x="63.578125" y="664.25"/>
      <point x="58.953125" y="667.859375"/>
      <point x="48.90625" y="667.859375" type="curve" smooth="yes"/>
      <point x="34.640625" y="667.859375"/>
      <point x="23.171875" y="659.421875"/>
      <point x="23.171875" y="650.984375" type="curve" smooth="yes"/>
      <point x="23.171875" y="645.765625"/>
      <point x="24.78125" y="642.15625"/>
      <point x="29.59375" y="635.53125" type="curve" smooth="yes"/>
      <point x="61.578125" y="593.515625"/>
      <point x="140.15625" y="438.671875"/>
      <point x="197.75" y="186.234375" type="curve" smooth="yes"/>
      <point x="202.765625" y="164.984375"/>
      <point x="209.8125" y="152.96875"/>
      <point x="220.46875" y="152.96875" type="curve" smooth="yes"/>
      <point x="234.34375" y="152.96875"/>
      <point x="239.796875" y="158.1875"/>
    </contour>
  </outline>
</glyph>
<glyph name="uni0668" format="2">
  <advance width="431.390625"/>
  <unicode hex="0668"/>
  <outline>
    <contour>
      <point x="48.921875" y="152.96875" type="curve" smooth="yes"/>
      <point x="61.75" y="152.96875"/>
      <point x="68.578125" y="164.1875"/>
      <point x="73.390625" y="175.015625" type="curve" smooth="yes"/>
      <point x="123.15625" y="287.71875"/>
      <point x="173.125" y="428.28125"/>
      <point x="208.90625" y="614.171875" type="curve"/>
      <point x="255.09375" y="378.890625"/>
      <point x="328.625" y="214.140625"/>
      <point x="362.796875" y="171.78125" type="curve" smooth="yes"/>
      <point x="368.015625" y="165.359375"/>
      <point x="372.4375" y="162.15625"/>
      <point x="382.6875" y="162.15625" type="curve" smooth="yes"/>
      <point x="396.953125" y="162.15625"/>
      <point x="408.21875" y="170.59375"/>
      <point x="408.21875" y="179.03125" type="curve" smooth="yes"/>
      <point x="408.21875" y="184.25"/>
      <point x="406.609375" y="188.0625"/>
      <point x="402.0" y="194.484375" type="curve" smooth="yes"/>
      <point x="369.609375" y="236.90625"/>
      <point x="291.640625" y="390.328125"/>
      <point x="233.640625" y="643.578125" type="curve" smooth="yes"/>
      <point x="228.421875" y="665.640625"/>
      <point x="221.78125" y="676.84375"/>
      <point x="210.921875" y="676.84375" type="curve" smooth="yes"/>
      <point x="196.84375" y="676.84375"/>
      <point x="191.390625" y="671.21875"/>
      <point x="185.5625" y="644.921875" type="curve" smooth="yes"/>
      <point x="150.75" y="479.59375"/>
      <point x="77.203125" y="281.5"/>
      <point x="31.390625" y="192.109375" type="curve" smooth="yes"/>
      <point x="25.1875" y="180.109375"/>
      <point x="23.171875" y="173.671875"/>
      <point x="23.171875" y="167.859375" type="curve" smooth="yes"/>
      <point x="23.171875" y="160.625"/>
      <point x="32.625" y="152.96875"/>
    </contour>
  </outline>
</glyph>
<glyph name="uni0669" format="2">
  <advance width="435.59375"/>
  <unicode hex="0669"/>
  <outline>
    <contour>
      <point x="384.3125" y="144.734375" type="curve" smooth="yes"/>
      <point x="396.984375" y="144.734375"/>
      <point x="406.03125" y="151.765625"/>
      <point x="406.03125" y="164.4375" type="curve" smooth="yes"/>
      <point x="406.03125" y="169.046875"/>
      <point x="405.234375" y="174.0625"/>
      <point x="401.625" y="178.875" type="curve" smooth="yes"/>
      <point x="372.484375" y="207.4375"/>
      <point x="363.671875" y="227.046875"/>
      <point x="351.671875" y="272.0" type="curve" smooth="yes"/>
      <point x="338.640625" y="317.25"/>
      <point x="329.421875" y="376.203125"/>
      <point x="320.609375" y="472.65625" type="curve" smooth="yes"/>
      <point x="304.796875" y="648.65625"/>
      <point x="222.71875" y="691.65625"/>
      <point x="164.265625" y="691.65625" type="curve" smooth="yes"/>
      <point x="104.0" y="691.65625"/>
      <point x="37.96875" y="632.453125"/>
      <point x="37.96875" y="543.03125" type="curve" smooth="yes"/>
      <point x="37.96875" y="456.96875"/>
      <point x="104.796875" y="402.546875"/>
      <point x="185.421875" y="402.546875" type="curve" smooth="yes"/>
      <point x="230.421875" y="402.546875"/>
      <point x="260.421875" y="412.75"/>
      <point x="285.421875" y="426.15625" type="curve"/>
      <point x="291.21875" y="364.171875"/>
      <point x="299.625" y="294.59375"/>
      <point x="311.21875" y="249.40625" type="curve" smooth="yes"/>
      <point x="321.21875" y="209.0"/>
      <point x="346.609375" y="166.390625"/>
      <point x="365.203125" y="152.984375" type="curve" smooth="yes"/>
      <point x="370.03125" y="148.359375"/>
      <point x="376.265625" y="144.734375"/>
    </contour>
    <contour>
      <point x="187.46875" y="435.328125" type="curve" smooth="yes"/>
      <point x="119.90625" y="435.328125"/>
      <point x="73.75" y="478.6875"/>
      <point x="73.75" y="542.03125" type="curve" smooth="yes"/>
      <point x="73.75" y="604.953125"/>
      <point x="111.703125" y="656.890625"/>
      <point x="163.65625" y="656.890625" type="curve" smooth="yes"/>
      <point x="203.625" y="656.890625"/>
      <point x="271.796875" y="631.71875"/>
      <point x="281.59375" y="456.71875" type="curve"/>
      <point x="266.0" y="446.125"/>
      <point x="228.21875" y="435.328125"/>
    </contour>
  </outline>
</glyph>
<glyph name="uni066A" format="2">
  <advance width="473.671875"/>
  <unicode hex="066A"/>
  <outline>
    <contour>
      <point x="120.21875" y="175.328125" type="curve" smooth="yes"/>
      <point x="125.046875" y="175.328125"/>
      <point x="131.265625" y="179.140625"/>
      <point x="133.671875" y="187.359375" type="curve" smooth="yes"/>
      <point x="136.09375" y="194.421875"/>
      <point x="149.46875" y="249.578125"/>
      <point x="165.28125" y="293.1875" type="curve" smooth="yes"/>
      <point x="187.671875" y="353.9375"/>
      <point x="227.640625" y="428.890625"/>
      <point x="271.796875" y="495.234375" type="curve" smooth="yes"/>
      <point x="315.96875" y="562.0"/>
      <point x="343.421875" y="595.265625"/>
      <point x="382.828125" y="626.078125" type="curve" smooth="yes"/>
      <point x="395.4375" y="635.890625"/>
      <point x="402.265625" y="644.125"/>
      <point x="402.265625" y="652.53125" type="curve" smooth="yes"/>
      <point x="402.265625" y="661.75"/>
      <point x="395.859375" y="669.1875"/>
      <point x="386.28125" y="670.40625" type="curve" smooth="yes"/>
      <point x="379.25" y="675.078125"/>
      <point x="371.203125" y="675.703125"/>
      <point x="362.359375" y="672.71875" type="curve" smooth="yes"/>
      <point x="339.765625" y="658.734375"/>
      <point x="299.453125" y="611.046875"/>
      <point x="261.296875" y="554.546875" type="curve" smooth="yes"/>
      <point x="213.328125" y="484.046875"/>
      <point x="174.296875" y="408.28125"/>
      <point x="148.265625" y="342.28125" type="curve" smooth="yes"/>
      <point x="123.796875" y="282.0"/>
      <point x="103.6875" y="212.828125"/>
      <point x="103.6875" y="195.671875" type="curve" smooth="yes"/>
      <point x="103.6875" y="184.390625"/>
      <point x="110.34375" y="175.328125"/>
    </contour>
    <contour>
      <point x="115.421875" y="555.515625" type="curve" smooth="yes"/>
      <point x="127.859375" y="555.515625"/>
      <point x="149.734375" y="565.9375"/>
      <point x="149.734375" y="583.171875" type="curve" smooth="yes"/>
      <point x="149.734375" y="614.640625"/>
      <point x="132.09375" y="653.328125"/>
      <point x="111.25" y="653.328125" type="curve" smooth="yes"/>
      <point x="92.40625" y="653.328125"/>
      <point x="67.953125" y="641.703125"/>
      <point x="67.953125" y="620.859375" type="curve" smooth="yes"/>
      <point x="67.953125" y="595.203125"/>
      <point x="94.390625" y="555.515625"/>
    </contour>
    <contour>
      <point x="343.265625" y="228.34375" type="curve" smooth="yes"/>
      <point x="355.90625" y="228.34375"/>
      <point x="377.578125" y="238.765625"/>
      <point x="377.578125" y="256.0" type="curve" smooth="yes"/>
      <point x="377.578125" y="287.46875"/>
      <point x="360.140625" y="326.15625"/>
      <point x="339.09375" y="326.15625" type="curve" smooth="yes"/>
      <point x="320.453125" y="326.15625"/>
      <point x="296.0" y="314.53125"/>
      <point x="296.0" y="293.6875" type="curve" smooth="yes"/>
      <point x="296.0" y="268.03125"/>
      <point x="322.4375" y="228.34375"/>
    </contour>
  </outline>
</glyph>
<glyph name="uni066B" format="2">
  <advance width="238.25"/>
  <unicode hex="066B"/>
  <outline>
    <contour>
      <point x="83.453125" y="59.640625" type="curve" smooth="yes"/>
      <point x="92.484375" y="59.640625"/>
      <point x="104.09375" y="69.65625"/>
      <point x="119.28125" y="89.8125" type="curve" smooth="yes"/>
      <point x="133.546875" y="106.4375"/>
      <point x="177.25" y="171.15625"/>
      <point x="177.25" y="205.03125" type="curve" smooth="yes"/>
      <point x="177.25" y="234.296875"/>
      <point x="160.203125" y="245.546875"/>
      <point x="135.5625" y="245.546875" type="curve" smooth="yes"/>
      <point x="107.890625" y="245.546875"/>
      <point x="86.8125" y="225.46875"/>
      <point x="86.8125" y="202.390625" type="curve" smooth="yes"/>
      <point x="86.8125" y="184.140625"/>
      <point x="104.234375" y="169.5"/>
      <point x="129.265625" y="165.109375" type="curve"/>
      <point x="117.0625" y="129.125"/>
      <point x="94.65625" y="99.15625"/>
      <point x="83.8125" y="86.71875" type="curve" smooth="yes"/>
      <point x="76.40625" y="77.71875"/>
      <point x="73.0" y="73.515625"/>
      <point x="73.0" y="68.09375" type="curve" smooth="yes"/>
      <point x="73.0" y="64.890625"/>
      <point x="76.59375" y="59.640625"/>
    </contour>
  </outline>
</glyph>
<glyph name="uni066C" format="2">
  <advance width="238.25"/>
  <unicode hex="066C"/>
  <outline>
    <contour>
      <point x="154.796875" y="338.640625" type="curve" smooth="yes"/>
      <point x="145.765625" y="338.640625"/>
      <point x="134.15625" y="328.625"/>
      <point x="118.96875" y="308.46875" type="curve" smooth="yes"/>
      <point x="104.703125" y="291.84375"/>
      <point x="61.0" y="227.125"/>
      <point x="61.0" y="193.25" type="curve" smooth="yes"/>
      <point x="61.0" y="163.984375"/>
      <point x="78.046875" y="152.734375"/>
      <point x="102.6875" y="152.734375" type="curve" smooth="yes"/>
      <point x="130.359375" y="152.734375"/>
      <point x="151.4375" y="172.8125"/>
      <point x="151.4375" y="195.890625" type="curve" smooth="yes"/>
      <point x="151.4375" y="214.140625"/>
      <point x="134.015625" y="228.78125"/>
      <point x="108.984375" y="233.171875" type="curve"/>
      <point x="121.1875" y="269.15625"/>
      <point x="143.59375" y="299.125"/>
      <point x="154.4375" y="311.5625" type="curve" smooth="yes"/>
      <point x="161.84375" y="320.5625"/>
      <point x="165.25" y="324.765625"/>
      <point x="165.25" y="330.1875" type="curve" smooth="yes"/>
      <point x="165.25" y="333.390625"/>
      <point x="161.65625" y="338.640625"/>
    </contour>
  </outline>
</glyph>
<glyph name="uni0781" format="2">
  <advance width="634.171875"/>
  <unicode hex="0781"/>
  <outline>
    <contour>
      <point x="-23.3125" y="-79.59375" type="curve" smooth="yes"/>
      <point x="6.640625" y="-79.59375"/>
      <point x="92.328125" y="-37.09375"/>
      <point x="159.140625" y="13.90625" type="curve" smooth="yes"/>
      <point x="210.0" y="53.140625"/>
      <point x="290.78125" y="135.3125"/>
      <point x="346.625" y="211.140625" type="curve"/>
      <point x="356.40625" y="209.34375"/>
      <point x="365.59375" y="209.34375"/>
      <point x="374.78125" y="209.34375" type="curve" smooth="yes"/>
      <point x="463.234375" y="209.34375"/>
      <point x="546.46875" y="253.71875"/>
      <point x="596.28125" y="294.140625" type="curve" smooth="yes"/>
      <point x="611.9375" y="306.59375"/>
      <point x="620.171875" y="317.0625"/>
      <point x="620.171875" y="327.71875" type="curve" smooth="yes"/>
      <point x="620.171875" y="334.140625"/>
      <point x="615.953125" y="341.59375"/>
      <point x="604.890625" y="341.59375" type="curve" smooth="yes"/>
      <point x="595.4375" y="341.59375"/>
      <point x="583.359375" y="328.890625"/>
      <point x="570.546875" y="318.6875" type="curve" smooth="yes"/>
      <point x="515.796875" y="275.34375"/>
      <point x="458.28125" y="245.40625"/>
      <point x="379.03125" y="246.203125" type="curve"/>
      <point x="371.390625" y="260.46875"/>
      <point x="351.15625" y="278.6875"/>
      <point x="330.484375" y="278.6875" type="curve" smooth="yes"/>
      <point x="308.125" y="278.6875"/>
      <point x="295.046875" y="265.203125"/>
      <point x="295.046875" y="248.5" type="curve" smooth="yes"/>
      <point x="295.046875" y="238.875"/>
      <point x="301.84375" y="229.65625"/>
      <point x="312.84375" y="223.03125" type="curve"/>
      <point x="262.265625" y="157.09375"/>
      <point x="200.28125" y="93.53125"/>
      <point x="136.046875" y="46.53125" type="curve" smooth="yes"/>
      <point x="77.9375" y="2.8125"/>
      <point x="18.40625" y="-19.15625"/>
      <point x="-20.390625" y="-31.15625" type="curve" smooth="yes"/>
      <point x="-39.421875" y="-36.96875"/>
      <point x="-47.046875" y="-43.8125"/>
      <point x="-47.046875" y="-56.859375" type="curve" smooth="yes"/>
      <point x="-47.046875" y="-68.953125"/>
      <point x="-39.796875" y="-79.59375"/>
    </contour>
  </outline>
</glyph>
<glyph name="uni0782" format="2">
  <advance width="809.0"/>
  <unicode hex="0782"/>
  <outline>
    <contour>
      <point x="-23.3125" y="-79.59375" type="curve" smooth="yes"/>
      <point x="-6.90625" y="-79.59375"/>
      <point x="28.765625" y="-67.375"/>
      <point x="72.28125" y="-41.875" type="curve" smooth="yes"/>
      <point x="177.125" y="16.671875"/>
      <point x="267.078125" y="102.046875"/>
      <point x="346.625" y="210.9375" type="curve"/>
      <point x="356.40625" y="209.34375"/>
      <point x="365.1875" y="209.34375"/>
      <point x="374.171875" y="209.34375" type="curve" smooth="yes"/>
      <point x="427.796875" y="209.34375"/>
      <point x="467.40625" y="229.109375"/>
      <point x="503.796875" y="251.46875" type="curve"/>
      <point x="522.640625" y="213.734375"/>
      <point x="554.828125" y="199.75"/>
      <point x="592.8125" y="199.75" type="curve" smooth="yes"/>
      <point x="675.578125" y="199.75"/>
      <point x="760.109375" y="265.46875"/>
      <point x="799.6875" y="308.703125" type="curve" smooth="yes"/>
      <point x="811.5" y="321.9375"/>
      <point x="818.703125" y="332.1875"/>
      <point x="818.703125" y="342.03125" type="curve" smooth="yes"/>
      <point x="818.703125" y="350.484375"/>
      <point x="814.890625" y="357.53125"/>
      <point x="803.625" y="357.53125" type="curve" smooth="yes"/>
      <point x="794.375" y="357.53125"/>
      <point x="786.953125" y="349.484375"/>
      <point x="776.90625" y="339.21875" type="curve" smooth="yes"/>
      <point x="731.53125" y="293.609375"/>
      <point x="669.671875" y="232.75"/>
      <point x="594.859375" y="232.75" type="curve" smooth="yes"/>
      <point x="569.53125" y="232.75"/>
      <point x="547.390625" y="240.125"/>
      <point x="532.8125" y="272.40625" type="curve"/>
      <point x="541.203125" y="281.015625"/>
      <point x="547.203125" y="290.46875"/>
      <point x="547.203125" y="298.703125" type="curve" smooth="yes"/>
      <point x="547.203125" y="308.78125"/>
      <point x="542.984375" y="316.234375"/>
      <point x="531.109375" y="316.234375" type="curve" smooth="yes"/>
      <point x="522.875" y="316.234375"/>
      <point x="515.25" y="308.609375"/>
      <point x="504.625" y="297.96875" type="curve" smooth="yes"/>
      <point x="470.09375" y="266.015625"/>
      <point x="432.171875" y="246.015625"/>
      <point x="380.65625" y="246.0" type="curve"/>
      <point x="371.421875" y="262.859375"/>
      <point x="349.171875" y="278.6875"/>
      <point x="330.09375" y="278.6875" type="curve" smooth="yes"/>
      <point x="308.734375" y="278.6875"/>
      <point x="295.046875" y="265.0"/>
      <point x="295.046875" y="248.296875" type="curve" smooth="yes"/>
      <point x="295.046875" y="238.671875"/>
      <point x="301.84375" y="229.453125"/>
      <point x="312.84375" y="223.03125" type="curve"/>
      <point x="222.859375" y="105.109375"/>
      <point x="117.734375" y="12.21875"/>
      <point x="-20.390625" y="-31.15625" type="curve" smooth="yes"/>
      <point x="-39.421875" y="-36.765625"/>
      <point x="-47.046875" y="-43.8125"/>
      <point x="-47.046875" y="-56.859375" type="curve" smooth="yes"/>
      <point x="-47.046875" y="-68.953125"/>
      <point x="-39.796875" y="-79.59375"/>
    </contour>
  </outline>
</glyph>
<glyph name="uni0784" format="2">
  <advance width="712.0"/>
  <unicode hex="0784"/>
  <outline>
    <contour>
      <point x="273.796875" y="-10.796875" type="curve" smooth="yes"/>
      <point x="496.390625" y="-10.796875"/>
      <point x="670.53125" y="125.578125"/>
      <point x="670.53125" y="240.890625" type="curve" smooth="yes"/>
      <point x="670.53125" y="292.28125"/>
      <point x="631.546875" y="335.5"/>
      <point x="552.765625" y="335.5" type="curve" smooth="yes"/>
      <point x="482.203125" y="335.5"/>
      <point x="431.578125" y="300.140625"/>
      <point x="388.546875" y="259.15625" type="curve"/>
      <point x="353.96875" y="282.9375"/>
      <point x="310.40625" y="299.125"/>
      <point x="257.234375" y="299.125" type="curve" smooth="yes"/>
      <point x="143.78125" y="299.125"/>
      <point x="67.765625" y="225.3125"/>
      <point x="67.765625" y="138.03125" type="curve" smooth="yes"/>
      <point x="67.765625" y="49.0"/>
      <point x="152.59375" y="-10.796875"/>
    </contour>
    <contour>
      <point x="234.0625" y="26.84375" type="curve"/>
      <point x="173.40625" y="33.859375"/>
      <point x="107.390625" y="72.1875"/>
      <point x="107.390625" y="139.859375" type="curve" smooth="yes"/>
      <point x="107.390625" y="205.1875"/>
      <point x="167.125" y="263.71875"/>
      <point x="254.421875" y="263.71875" type="curve" smooth="yes"/>
      <point x="291.53125" y="263.71875"/>
      <point x="334.421875" y="253.75"/>
      <point x="362.96875" y="233.609375" type="curve"/>
      <point x="313.578125" y="174.25"/>
      <point x="264.234375" y="91.75"/>
    </contour>
    <contour>
      <point x="270.28125" y="23.8125" type="curve"/>
      <point x="368.078125" y="220.203125"/>
      <point x="457.15625" y="300.890625"/>
      <point x="548.296875" y="300.890625" type="curve" smooth="yes"/>
      <point x="606.15625" y="300.890625"/>
      <point x="630.90625" y="271.96875"/>
      <point x="630.90625" y="236.828125" type="curve" smooth="yes"/>
      <point x="630.90625" y="155.53125"/>
      <point x="494.734375" y="25.84375"/>
    </contour>
  </outline>
</glyph>
<glyph name="uni0785" format="2">
  <advance width="545.0"/>
  <unicode hex="0785"/>
  <outline>
    <contour>
      <point x="1.59375" y="-69.234375" type="curve" smooth="yes"/>
      <point x="46.5" y="-69.234375"/>
      <point x="158.59375" y="-17.125"/>
      <point x="252.515625" y="41.796875" type="curve" smooth="yes"/>
      <point x="341.875" y="97.203125"/>
      <point x="460.265625" y="200.609375"/>
      <point x="503.421875" y="257.953125" type="curve" smooth="yes"/>
      <point x="511.84375" y="269.78125"/>
      <point x="515.859375" y="276.421875"/>
      <point x="515.859375" y="283.25" type="curve" smooth="yes"/>
      <point x="515.859375" y="289.875"/>
      <point x="512.46875" y="295.921875"/>
      <point x="503.390625" y="295.921875" type="curve" smooth="yes"/>
      <point x="495.375" y="295.921875"/>
      <point x="487.546875" y="288.90625"/>
      <point x="474.921875" y="274.296875" type="curve" smooth="yes"/>
      <point x="455.515625" y="252.3125"/>
      <point x="427.125" y="221.921875"/>
      <point x="393.140625" y="192.140625" type="curve"/>
      <point x="344.609375" y="202.3125"/>
      <point x="300.6875" y="233.25"/>
      <point x="300.6875" y="276.203125" type="curve" smooth="yes"/>
      <point x="300.6875" y="312.359375"/>
      <point x="325.03125" y="333.9375"/>
      <point x="352.5625" y="344.734375" type="curve" smooth="yes"/>
      <point x="369.953125" y="352.5625"/>
      <point x="375.59375" y="358.1875"/>
      <point x="375.59375" y="366.015625" type="curve" smooth="yes"/>
      <point x="375.59375" y="376.078125"/>
      <point x="367.9375" y="381.09375"/>
      <point x="359.484375" y="381.09375" type="curve" smooth="yes"/>
      <point x="351.25" y="381.09375"/>
      <point x="341.015625" y="378.875"/>
      <point x="326.8125" y="371.65625" type="curve" smooth="yes"/>
      <point x="297.015625" y="356.625"/>
      <point x="263.265625" y="330.375"/>
      <point x="263.265625" y="276.015625" type="curve" smooth="yes"/>
      <point x="263.265625" y="219.03125"/>
      <point x="315.96875" y="179.828125"/>
      <point x="361.75" y="165.8125" type="curve"/>
      <point x="311.59375" y="125.671875"/>
      <point x="261.40625" y="89.703125"/>
      <point x="209.21875" y="59.328125" type="curve" smooth="yes"/>
      <point x="128.703125" y="12.796875"/>
      <point x="71.09375" y="-9.203125"/>
      <point x="-0.015625" y="-22.578125" type="curve" smooth="yes"/>
      <point x="-14.078125" y="-24.984375"/>
      <point x="-23.140625" y="-33.03125"/>
      <point x="-23.140625" y="-45.5" type="curve" smooth="yes"/>
      <point x="-23.140625" y="-60.578125"/>
      <point x="-12.703125" y="-69.234375"/>
    </contour>
  </outline>
</glyph>
<glyph name="uni0786" format="2">
  <advance width="550.0"/>
  <unicode hex="0786"/>
  <outline>
    <contour>
      <point x="62.859375" y="-7.609375" type="curve" smooth="yes"/>
      <point x="92.125" y="-7.609375"/>
      <point x="177.953125" y="21.609375"/>
      <point x="260.734375" y="72.625" type="curve" smooth="yes"/>
      <point x="349.421875" y="126.578125"/>
      <point x="458.578125" y="221.703125"/>
      <point x="515.53125" y="293.078125" type="curve" smooth="yes"/>
      <point x="524.15625" y="304.515625"/>
      <point x="528.96875" y="313.359375"/>
      <point x="528.96875" y="320.59375" type="curve" smooth="yes"/>
      <point x="528.96875" y="329.65625"/>
      <point x="522.75" y="334.703125"/>
      <point x="514.28125" y="334.703125" type="curve" smooth="yes"/>
      <point x="503.828125" y="334.703125"/>
      <point x="496.78125" y="326.078125"/>
      <point x="483.96875" y="310.640625" type="curve" smooth="yes"/>
      <point x="418.34375" y="237.203125"/>
      <point x="336.171875" y="158.34375"/>
      <point x="239.609375" y="102.15625" type="curve" smooth="yes"/>
      <point x="176.78125" y="66.25"/>
      <point x="139.84375" y="53.0625"/>
      <point x="99.125" y="43.875" type="curve"/>
      <point x="174.03125" y="165.96875"/>
      <point x="199.984375" y="231.4375"/>
      <point x="199.984375" y="283.140625" type="curve" smooth="yes"/>
      <point x="199.984375" y="301.03125"/>
      <point x="192.75" y="307.078125"/>
      <point x="179.265625" y="307.078125" type="curve" smooth="yes"/>
      <point x="164.140625" y="307.078125"/>
      <point x="159.125" y="295.5625"/>
      <point x="157.515625" y="281.71875" type="curve" smooth="yes"/>
      <point x="153.09375" y="229.890625"/>
      <point x="136.125" y="170.21875"/>
      <point x="58.765625" y="49.703125" type="curve" smooth="yes"/>
      <point x="44.359375" y="27.5"/>
      <point x="40.15625" y="20.09375"/>
      <point x="40.15625" y="12.65625" type="curve" smooth="yes"/>
      <point x="40.15625" y="0.03125"/>
      <point x="50.796875" y="-7.609375"/>
    </contour>
  </outline>
</glyph>
<glyph name="uni0787" format="2">
  <advance width="533.0"/>
  <unicode hex="0787"/>
  <outline>
    <contour>
      <point x="-21.703125" y="-7.609375" type="curve" smooth="yes"/>
      <point x="8.890625" y="-7.609375"/>
      <point x="76.625" y="18.578125"/>
      <point x="153.75" y="62.546875" type="curve" smooth="yes"/>
      <point x="250.6875" y="118.125"/>
      <point x="379.15625" y="224.609375"/>
      <point x="433.40625" y="290.46875" type="curve"/>
      <point x="426.015625" y="218.0625"/>
      <point x="406.796875" y="141.203125"/>
      <point x="363.015625" y="61.109375" type="curve" smooth="yes"/>
      <point x="347.015625" y="31.9375"/>
      <point x="340.015625" y="23.328125"/>
      <point x="340.015625" y="15.6875" type="curve" smooth="yes"/>
      <point x="340.015625" y="5.234375"/>
      <point x="348.453125" y="-1.0"/>
      <point x="359.71875" y="-1.0" type="curve" smooth="yes"/>
      <point x="370.75" y="-1.0"/>
      <point x="381.984375" y="8.8125"/>
      <point x="399.359375" y="42.734375" type="curve" smooth="yes"/>
      <point x="432.234375" y="100.359375"/>
      <point x="470.8125" y="223.59375"/>
      <point x="470.8125" y="313.015625" type="curve" smooth="yes"/>
      <point x="470.8125" y="331.546875"/>
      <point x="462.59375" y="341.875"/>
      <point x="448.046875" y="341.875" type="curve" smooth="yes"/>
      <point x="433.328125" y="341.875"/>
      <point x="412.03125" y="319.171875"/>
      <point x="398.0" y="303.9375" type="curve" smooth="yes"/>
      <point x="314.09375" y="216.828125"/>
      <point x="236.359375" y="153.09375"/>
      <point x="133.671875" y="97.96875" type="curve" smooth="yes"/>
      <point x="58.03125" y="57.0625"/>
      <point x="26.609375" y="49.4375"/>
      <point x="-25.75" y="38.03125" type="curve" smooth="yes"/>
      <point x="-39.609375" y="34.609375"/>
      <point x="-47.046875" y="27.171875"/>
      <point x="-47.046875" y="14.90625" type="curve" smooth="yes"/>
      <point x="-47.046875" y="0.234375"/>
      <point x="-36.40625" y="-7.609375"/>
    </contour>
  </outline>
</glyph>
<glyph name="uni0788" format="2">
  <advance width="538.0"/>
  <unicode hex="0788"/>
  <outline>
    <contour>
      <point x="-24.09375" y="-88.359375" type="curve" smooth="yes"/>
      <point x="1.109375" y="-88.359375"/>
      <point x="83.765625" y="-58.71875"/>
      <point x="181.421875" y="-0.390625" type="curve" smooth="yes"/>
      <point x="270.375" y="52.796875"/>
      <point x="393.109375" y="159.3125"/>
      <point x="439.359375" y="213.15625" type="curve" smooth="yes"/>
      <point x="474.359375" y="253.75"/>
      <point x="490.171875" y="287.1875"/>
      <point x="490.171875" y="318.640625" type="curve" smooth="yes"/>
      <point x="490.171875" y="366.0625"/>
      <point x="449.96875" y="382.6875"/>
      <point x="401.328125" y="382.6875" type="curve" smooth="yes"/>
      <point x="295.921875" y="382.6875"/>
      <point x="197.3125" y="302.0625"/>
      <point x="197.3125" y="225.234375" type="curve" smooth="yes"/>
      <point x="197.3125" y="182.65625"/>
      <point x="240.21875" y="150.65625"/>
      <point x="313.46875" y="143.203125" type="curve"/>
      <point x="288.421875" y="123.390625"/>
      <point x="223.875" y="72.28125"/>
      <point x="155.34375" y="33.140625" type="curve" smooth="yes"/>
      <point x="63.765625" y="-20.3125"/>
      <point x="22.1875" y="-31.921875"/>
      <point x="-28.140625" y="-42.109375" type="curve" smooth="yes"/>
      <point x="-42.203125" y="-45.125"/>
      <point x="-49.4375" y="-52.96875"/>
      <point x="-49.4375" y="-65.234375" type="curve" smooth="yes"/>
      <point x="-49.4375" y="-79.90625"/>
      <point x="-38.796875" y="-88.359375"/>
    </contour>
    <contour>
      <point x="344.296875" y="168.546875" type="curve"/>
      <point x="295.1875" y="172.140625"/>
      <point x="234.53125" y="183.125"/>
      <point x="234.53125" y="229.046875" type="curve" smooth="yes"/>
      <point x="234.53125" y="290.375"/>
      <point x="320.8125" y="348.90625"/>
      <point x="395.875" y="348.90625" type="curve" smooth="yes"/>
      <point x="438.0" y="348.90625"/>
      <point x="453.359375" y="331.140625"/>
      <point x="453.359375" y="309.78125" type="curve" smooth="yes"/>
      <point x="453.359375" y="277.375"/>
      <point x="410.578125" y="221.25"/>
    </contour>
  </outline>
</glyph>
<glyph name="uni0789" format="2">
  <advance width="518.0"/>
  <unicode hex="0789"/>
  <outline>
    <contour>
      <point x="10.84375" y="-20.0" type="curve" smooth="yes"/>
      <point x="24.84375" y="-20.0"/>
      <point x="42.875" y="-16.390625"/>
      <point x="71.484375" y="-8.78125" type="curve" smooth="yes"/>
      <point x="114.875" y="2.625"/>
      <point x="178.609375" y="27.40625"/>
      <point x="241.109375" y="63.546875" type="curve" smooth="yes"/>
      <point x="318.484375" y="108.328125"/>
      <point x="418.109375" y="182.3125"/>
      <point x="454.96875" y="231.796875" type="curve" smooth="yes"/>
      <point x="477.359375" y="261.1875"/>
      <point x="488.5625" y="284.796875"/>
      <point x="488.5625" y="305.8125" type="curve" smooth="yes"/>
      <point x="488.5625" y="349.109375"/>
      <point x="413.3125" y="367.09375"/>
      <point x="317.34375" y="367.09375" type="curve" smooth="yes"/>
      <point x="242.609375" y="367.09375"/>
      <point x="187.046875" y="355.71875"/>
      <point x="160.625" y="349.109375" type="curve" smooth="yes"/>
      <point x="129.578125" y="341.09375"/>
      <point x="119.734375" y="333.25"/>
      <point x="119.734375" y="323.0" type="curve" smooth="yes"/>
      <point x="119.734375" y="309.96875"/>
      <point x="127.359375" y="303.90625"/>
      <point x="138.828125" y="303.90625" type="curve" smooth="yes"/>
      <point x="150.078125" y="303.90625"/>
      <point x="177.265625" y="312.90625"/>
      <point x="204.671875" y="318.515625" type="curve" smooth="yes"/>
      <point x="238.4375" y="325.515625"/>
      <point x="277.59375" y="332.3125"/>
      <point x="318.765625" y="332.3125" type="curve" smooth="yes"/>
      <point x="406.328125" y="332.3125"/>
      <point x="446.078125" y="320.140625"/>
      <point x="446.078125" y="299.78125" type="curve" smooth="yes"/>
      <point x="446.078125" y="276.625"/>
      <point x="416.78125" y="230.546875"/>
      <point x="345.34375" y="177.4375" type="curve" smooth="yes"/>
      <point x="239.25" y="96.453125"/>
      <point x="149.265625" y="56.671875"/>
      <point x="78.578125" y="37.84375" type="curve" smooth="yes"/>
      <point x="43.828125" y="28.65625"/>
      <point x="25.015625" y="26.640625"/>
      <point x="6.0" y="22.4375" type="curve" smooth="yes"/>
      <point x="-8.0625" y="19.421875"/>
      <point x="-14.296875" y="10.1875"/>
      <point x="-14.296875" y="-0.28125" type="curve" smooth="yes"/>
      <point x="-14.296875" y="-12.5625"/>
      <point x="-6.25" y="-20.0"/>
    </contour>
  </outline>
</glyph>
<glyph name="uni078A" format="2">
  <advance width="449.0"/>
  <unicode hex="078A"/>
  <outline>
    <contour>
      <point x="-20.90625" y="-83.578125" type="curve" smooth="yes"/>
      <point x="-0.703125" y="-83.578125"/>
      <point x="80.828125" y="-47.828125"/>
      <point x="145.21875" y="-15.8125" type="curve" smooth="yes"/>
      <point x="225.734375" y="23.765625"/>
      <point x="365.40625" y="113.015625"/>
      <point x="365.40625" y="165.65625" type="curve" smooth="yes"/>
      <point x="365.40625" y="182.875"/>
      <point x="342.84375" y="197.25"/>
      <point x="277.609375" y="210.84375" type="curve"/>
      <point x="309.75" y="225.421875"/>
      <point x="337.3125" y="237.015625"/>
      <point x="358.6875" y="248.21875" type="curve" smooth="yes"/>
      <point x="408.390625" y="273.59375"/>
      <point x="426.59375" y="289.21875"/>
      <point x="426.59375" y="309.046875" type="curve" smooth="yes"/>
      <point x="426.59375" y="332.875"/>
      <point x="368.28125" y="348.453125"/>
      <point x="293.40625" y="369.21875" type="curve"/>
      <point x="340.703125" y="394.359375"/>
      <point x="388.578125" y="417.3125"/>
      <point x="411.734375" y="431.890625" type="curve" smooth="yes"/>
      <point x="418.765625" y="436.71875"/>
      <point x="421.1875" y="441.75"/>
      <point x="421.1875" y="446.96875" type="curve" smooth="yes"/>
      <point x="421.1875" y="453.828125"/>
      <point x="415.34375" y="461.46875"/>
      <point x="405.5" y="461.46875" type="curve" smooth="yes"/>
      <point x="387.671875" y="461.46875"/>
      <point x="371.6875" y="441.265625"/>
      <point x="314.9375" y="413.265625" type="curve" smooth="yes"/>
      <point x="266.328125" y="388.4375"/>
      <point x="250.09375" y="379.265625"/>
      <point x="250.09375" y="365.796875" type="curve" smooth="yes"/>
      <point x="250.09375" y="357.15625"/>
      <point x="255.3125" y="350.546875"/>
      <point x="282.484375" y="342.75" type="curve" smooth="yes"/>
      <point x="334.84375" y="327.75"/>
      <point x="385.921875" y="314.015625"/>
      <point x="385.921875" y="303.609375" type="curve" smooth="yes"/>
      <point x="385.921875" y="291.828125"/>
      <point x="350.375" y="275.453125"/>
      <point x="308.640625" y="257.875" type="curve" smooth="yes"/>
      <point x="265.6875" y="239.6875"/>
      <point x="226.90625" y="220.890625"/>
      <point x="226.90625" y="209.25" type="curve" smooth="yes"/>
      <point x="226.90625" y="200.8125"/>
      <point x="231.125" y="194.796875"/>
      <point x="242.71875" y="191.78125" type="curve" smooth="yes"/>
      <point x="278.234375" y="184.171875"/>
      <point x="322.328125" y="174.59375"/>
      <point x="322.328125" y="158.625" type="curve" smooth="yes"/>
      <point x="322.328125" y="124.859375"/>
      <point x="218.96875" y="58.796875"/>
      <point x="116.625" y="15.421875" type="curve" smooth="yes"/>
      <point x="71.25" y="-3.765625"/>
      <point x="30.0625" y="-21.53125"/>
      <point x="-12.359375" y="-32.734375" type="curve" smooth="yes"/>
      <point x="-37.375" y="-38.9375"/>
      <point x="-49.4375" y="-47.78125"/>
      <point x="-49.4375" y="-60.84375" type="curve" smooth="yes"/>
      <point x="-49.4375" y="-76.515625"/>
      <point x="-39.59375" y="-83.578125"/>
    </contour>
  </outline>
</glyph>
<glyph name="uni078B" format="2">
  <advance width="634.0"/>
  <unicode hex="078B"/>
  <outline>
    <contour>
      <point x="-31.28125" y="-79.59375" type="curve" smooth="yes"/>
      <point x="2.65625" y="-79.59375"/>
      <point x="106.28125" y="-32.90625"/>
      <point x="151.78125" y="-2.03125" type="curve" smooth="yes"/>
      <point x="194.640625" y="27.015625"/>
      <point x="276.921875" y="89.5625"/>
      <point x="331.546875" y="171.125" type="curve"/>
      <point x="344.375" y="167.328125"/>
      <point x="358.1875" y="165.53125"/>
      <point x="387.328125" y="165.53125" type="curve" smooth="yes"/>
      <point x="484.359375" y="165.53125"/>
      <point x="582.59375" y="234.875"/>
      <point x="582.59375" y="311.984375" type="curve" smooth="yes"/>
      <point x="582.59375" y="348.40625"/>
      <point x="563.5625" y="374.625"/>
      <point x="519.875" y="391.578125" type="curve"/>
      <point x="563.046875" y="402.1875"/>
      <point x="612.765625" y="426.34375"/>
      <point x="612.765625" y="440.59375" type="curve" smooth="yes"/>
      <point x="612.765625" y="451.4375"/>
      <point x="607.921875" y="457.484375"/>
      <point x="595.078125" y="457.484375" type="curve" smooth="yes"/>
      <point x="585.03125" y="457.484375"/>
      <point x="567.046875" y="437.6875"/>
      <point x="534.078125" y="426.890625" type="curve" smooth="yes"/>
      <point x="501.65625" y="415.875"/>
      <point x="465.78125" y="409.5"/>
      <point x="465.78125" y="393.390625" type="curve" smooth="yes"/>
      <point x="465.78125" y="384.75"/>
      <point x="471.015625" y="381.53125"/>
      <point x="482.421875" y="376.328125" type="curve" smooth="yes"/>
      <point x="520.15625" y="360.75"/>
      <point x="545.15625" y="345.78125"/>
      <point x="545.15625" y="309.1875" type="curve" smooth="yes"/>
      <point x="545.15625" y="254.625"/>
      <point x="466.28125" y="199.75"/>
      <point x="394.203125" y="199.75" type="curve" smooth="yes"/>
      <point x="376.796875" y="199.75"/>
      <point x="360.59375" y="201.75"/>
      <point x="352.375" y="203.5625" type="curve"/>
      <point x="345.375" y="218.59375"/>
      <point x="325.5625" y="235.84375"/>
      <point x="306.6875" y="235.84375" type="curve" smooth="yes"/>
      <point x="290.8125" y="235.84375"/>
      <point x="278.75" y="223.984375"/>
      <point x="278.75" y="208.703125" type="curve" smooth="yes"/>
      <point x="278.75" y="198.671875"/>
      <point x="285.953125" y="189.234375"/>
      <point x="297.15625" y="183.015625" type="curve"/>
      <point x="247.984375" y="108.140625"/>
      <point x="162.609375" y="51.265625"/>
      <point x="128.703125" y="29.796875" type="curve" smooth="yes"/>
      <point x="93.5" y="7.59375"/>
      <point x="23.1875" y="-19.15625"/>
      <point x="-28.359375" y="-31.15625" type="curve" smooth="yes"/>
      <point x="-46.59375" y="-36.171875"/>
      <point x="-55.015625" y="-43.8125"/>
      <point x="-55.015625" y="-56.859375" type="curve" smooth="yes"/>
      <point x="-55.015625" y="-68.953125"/>
      <point x="-47.765625" y="-79.59375"/>
    </contour>
  </outline>
</glyph>
<glyph name="uni078D" format="2">
  <advance width="576.0"/>
  <unicode hex="078D"/>
  <outline>
    <contour>
      <point x="-20.90625" y="-83.578125" type="curve" smooth="yes"/>
      <point x="5.078125" y="-83.578125"/>
      <point x="106.671875" y="-23.546875"/>
      <point x="188.609375" y="29.59375" type="curve" smooth="yes"/>
      <point x="271.34375" y="82.25"/>
      <point x="415.515625" y="216.625"/>
      <point x="484.0" y="289.125" type="curve" smooth="yes"/>
      <point x="505.03125" y="311.359375"/>
      <point x="516.640625" y="326.171875"/>
      <point x="516.640625" y="333.234375" type="curve" smooth="yes"/>
      <point x="516.640625" y="346.265625"/>
      <point x="508.21875" y="351.6875"/>
      <point x="492.203125" y="351.6875" type="curve" smooth="yes"/>
      <point x="459.640625" y="350.890625"/>
      <point x="420.703125" y="347.09375"/>
      <point x="381.171875" y="343.5" type="curve" smooth="yes"/>
      <point x="337.03125" y="339.703125"/>
      <point x="292.890625" y="335.90625"/>
      <point x="255.921875" y="335.703125" type="curve"/>
      <point x="318.375" y="374.8125"/>
      <point x="381.0" y="409.53125"/>
      <point x="411.125" y="432.296875" type="curve" smooth="yes"/>
      <point x="416.9375" y="436.921875"/>
      <point x="418.75" y="441.546875"/>
      <point x="418.75" y="446.765625" type="curve" smooth="yes"/>
      <point x="418.75" y="453.625"/>
      <point x="413.3125" y="461.46875"/>
      <point x="403.0625" y="461.46875" type="curve" smooth="yes"/>
      <point x="394.03125" y="461.46875"/>
      <point x="384.609375" y="458.453125"/>
      <point x="367.828125" y="446.84375" type="curve" smooth="yes"/>
      <point x="346.203125" y="430.78125"/>
      <point x="305.25" y="401.390625"/>
      <point x="244.9375" y="365.828125" type="curve" smooth="yes"/>
      <point x="215.0" y="348.65625"/>
      <point x="211.1875" y="338.84375"/>
      <point x="211.1875" y="328.421875" type="curve" smooth="yes"/>
      <point x="211.1875" y="317.34375"/>
      <point x="219.875" y="301.921875"/>
      <point x="254.953125" y="301.921875" type="curve" smooth="yes"/>
      <point x="325.21875" y="301.921875"/>
      <point x="437.296875" y="318.859375"/>
      <point x="467.296875" y="318.875" type="curve"/>
      <point x="421.328125" y="271.546875"/>
      <point x="273.703125" y="134.15625"/>
      <point x="174.515625" y="67.125" type="curve" smooth="yes"/>
      <point x="101.078125" y="18.9375"/>
      <point x="14.25" y="-24.9375"/>
      <point x="-14.59375" y="-33.34375" type="curve" smooth="yes"/>
      <point x="-39.015625" y="-40.34375"/>
      <point x="-49.4375" y="-47.984375"/>
      <point x="-49.4375" y="-60.84375" type="curve" smooth="yes"/>
      <point x="-49.4375" y="-76.515625"/>
      <point x="-39.59375" y="-83.578125"/>
    </contour>
  </outline>
</glyph>
<glyph name="uni078F" format="2">
  <advance width="722.0"/>
  <unicode hex="078F"/>
  <outline>
    <contour>
      <point x="286.71875" y="-167.15625" type="curve" smooth="yes"/>
      <point x="359.28125" y="-167.15625"/>
      <point x="422.734375" y="-157.359375"/>
      <point x="472.875" y="-145.171875" type="curve" smooth="yes"/>
      <point x="487.734375" y="-141.15625"/>
      <point x="497.375" y="-134.53125"/>
      <point x="497.375" y="-124.484375" type="curve" smooth="yes"/>
      <point x="497.375" y="-114.21875"/>
      <point x="491.34375" y="-106.796875"/>
      <point x="478.90625" y="-106.796875" type="curve" smooth="yes"/>
      <point x="466.875" y="-106.796875"/>
      <point x="455.25" y="-110.0"/>
      <point x="432.265625" y="-115.984375" type="curve" smooth="yes"/>
      <point x="401.6875" y="-123.765625"/>
      <point x="366.90625" y="-131.75"/>
      <point x="283.953125" y="-131.75" type="curve" smooth="yes"/>
      <point x="150.109375" y="-131.75"/>
      <point x="97.375" y="-89.8125"/>
      <point x="97.375" y="-21.5" type="curve" smooth="yes"/>
      <point x="97.375" y="69.625"/>
      <point x="216.4375" y="160.75"/>
      <point x="304.140625" y="206.921875" type="curve"/>
      <point x="317.34375" y="193.734375"/>
      <point x="330.546875" y="180.953125"/>
      <point x="340.546875" y="180.953125" type="curve" smooth="yes"/>
      <point x="359.78125" y="180.953125"/>
      <point x="410.125" y="215.28125"/>
      <point x="465.4375" y="283.203125" type="curve"/>
      <point x="473.453125" y="209.3125"/>
      <point x="500.28125" y="172.359375"/>
      <point x="531.078125" y="172.359375" type="curve" smooth="yes"/>
      <point x="558.71875" y="172.359375"/>
      <point x="590.125" y="191.78125"/>
      <point x="647.890625" y="247.734375" type="curve" smooth="yes"/>
      <point x="684.921875" y="283.75"/>
      <point x="713.734375" y="313.953125"/>
      <point x="713.734375" y="338.40625" type="curve" smooth="yes"/>
      <point x="713.734375" y="346.859375"/>
      <point x="708.109375" y="352.09375"/>
      <point x="697.65625" y="352.09375" type="curve" smooth="yes"/>
      <point x="688.015625" y="352.09375"/>
      <point x="681.1875" y="345.703125"/>
      <point x="674.5625" y="335.09375" type="curve" smooth="yes"/>
      <point x="668.546875" y="325.890625"/>
      <point x="660.15625" y="311.5"/>
      <point x="634.390625" y="282.3125" type="curve" smooth="yes"/>
      <point x="596.453125" y="239.546875"/>
      <point x="558.671875" y="205.375"/>
      <point x="535.921875" y="205.375" type="curve" smooth="yes"/>
      <point x="517.34375" y="205.375"/>
      <point x="498.96875" y="246.84375"/>
      <point x="494.375" y="308.90625" type="curve" smooth="yes"/>
      <point x="492.375" y="330.6875"/>
      <point x="487.15625" y="335.5"/>
      <point x="478.734375" y="335.5" type="curve" smooth="yes"/>
      <point x="471.734375" y="335.5"/>
      <point x="466.515625" y="330.6875"/>
      <point x="460.296875" y="322.078125" type="curve" smooth="yes"/>
      <point x="426.734375" y="275.96875"/>
      <point x="363.0625" y="219.84375"/>
      <point x="348.03125" y="219.84375" type="curve" smooth="yes"/>
      <point x="336.625" y="219.84375"/>
      <point x="300.5" y="269.15625"/>
      <point x="286.484375" y="293.171875" type="curve" smooth="yes"/>
      <point x="275.890625" y="311.75"/>
      <point x="271.671875" y="317.375"/>
      <point x="261.65625" y="317.375" type="curve" smooth="yes"/>
      <point x="247.328125" y="317.375"/>
      <point x="235.203125" y="304.078125"/>
      <point x="235.203125" y="294.984375" type="curve" smooth="yes"/>
      <point x="235.203125" y="287.953125"/>
      <point x="239.015625" y="279.9375"/>
      <point x="245.828125" y="271.734375" type="curve" smooth="yes"/>
      <point x="262.59375" y="249.390625"/>
      <point x="270.203125" y="240.796875"/>
      <point x="281.59375" y="227.625" type="curve"/>
      <point x="195.421875" y="179.625"/>
      <point x="60.953125" y="80.640625"/>
      <point x="60.953125" y="-23.734375" type="curve" smooth="yes"/>
      <point x="60.953125" y="-106.921875"/>
      <point x="121.921875" y="-167.15625"/>
    </contour>
  </outline>
</glyph>
<glyph name="uni0791" format="2">
  <advance width="390.0"/>
  <unicode hex="0791"/>
  <outline>
    <contour>
      <point x="256.984375" y="-47.1875" type="curve" smooth="yes"/>
      <point x="307.59375" y="-47.1875"/>
      <point x="322.0" y="-38.140625"/>
      <point x="322.0" y="-24.6875" type="curve" smooth="yes"/>
      <point x="322.0" y="-13.421875"/>
      <point x="317.375" y="-6.984375"/>
      <point x="305.125" y="-6.984375" type="curve" smooth="yes"/>
      <point x="291.90625" y="-6.984375"/>
      <point x="276.71875" y="-11.375"/>
      <point x="252.75" y="-11.375" type="curve" smooth="yes"/>
      <point x="174.8125" y="-11.375"/>
      <point x="74.8125" y="14.4375"/>
      <point x="74.8125" y="64.90625" type="curve" smooth="yes"/>
      <point x="74.8125" y="99.203125"/>
      <point x="142.71875" y="129.203125"/>
      <point x="228.375" y="159.359375" type="curve" smooth="yes"/>
      <point x="268.390625" y="173.171875"/>
      <point x="273.390625" y="180.625"/>
      <point x="273.390625" y="194.46875" type="curve" smooth="yes"/>
      <point x="273.390625" y="205.484375"/>
      <point x="263.1875" y="212.296875"/>
      <point x="244.0" y="217.90625" type="curve" smooth="yes"/>
      <point x="220.1875" y="225.53125"/>
      <point x="130.78125" y="241.09375"/>
      <point x="91.265625" y="251.078125" type="curve"/>
      <point x="112.234375" y="272.828125"/>
      <point x="179.265625" y="316.921875"/>
      <point x="206.03125" y="332.734375" type="curve" smooth="yes"/>
      <point x="221.015625" y="341.546875"/>
      <point x="226.625" y="346.578125"/>
      <point x="226.625" y="352.40625" type="curve" smooth="yes"/>
      <point x="226.625" y="359.046875"/>
      <point x="221.203125" y="365.484375"/>
      <point x="209.953125" y="365.484375" type="curve" smooth="yes"/>
      <point x="198.328125" y="365.484375"/>
      <point x="185.6875" y="359.65625"/>
      <point x="165.875" y="346.4375" type="curve" smooth="yes"/>
      <point x="137.25" y="326.609375"/>
      <point x="98.6875" y="298.8125"/>
      <point x="72.328125" y="273.4375" type="curve" smooth="yes"/>
      <point x="56.75" y="259.046875"/>
      <point x="51.75" y="253.40625"/>
      <point x="51.75" y="243.8125" type="curve" smooth="yes"/>
      <point x="51.75" y="234.578125"/>
      <point x="60.96875" y="229.15625"/>
      <point x="72.796875" y="225.75" type="curve" smooth="yes"/>
      <point x="117.75" y="212.765625"/>
      <point x="183.8125" y="203.390625"/>
      <point x="231.875" y="192.015625" type="curve"/>
      <point x="146.28125" y="160.46875"/>
      <point x="36.75" y="124.90625"/>
      <point x="36.75" y="60.46875" type="curve" smooth="yes"/>
      <point x="36.75" y="-8.359375"/>
      <point x="160.40625" y="-47.1875"/>
    </contour>
  </outline>
</glyph>
<glyph name="uni0792" format="2">
  <advance width="570.0"/>
  <unicode hex="0792"/>
  <outline>
    <contour>
      <point x="213.796875" y="-151.21875" type="curve" smooth="yes"/>
      <point x="290.640625" y="-151.21875"/>
      <point x="342.59375" y="-140.046875"/>
      <point x="369.609375" y="-132.25" type="curve" smooth="yes"/>
      <point x="398.03125" y="-124.25"/>
      <point x="413.0625" y="-116.421875"/>
      <point x="413.0625" y="-104.578125" type="curve" smooth="yes"/>
      <point x="413.0625" y="-92.53125"/>
      <point x="406.828125" y="-89.296875"/>
      <point x="396.984375" y="-89.296875" type="curve" smooth="yes"/>
      <point x="388.15625" y="-89.296875"/>
      <point x="378.734375" y="-93.484375"/>
      <point x="350.984375" y="-100.0625" type="curve" smooth="yes"/>
      <point x="321.015625" y="-106.640625"/>
      <point x="285.265625" y="-116.609375"/>
      <point x="215.21875" y="-116.609375" type="curve" smooth="yes"/>
      <point x="125.078125" y="-116.609375"/>
      <point x="81.4375" y="-83.6875"/>
      <point x="81.4375" y="-39.125" type="curve" smooth="yes"/>
      <point x="81.4375" y="35.328125"/>
      <point x="201.421875" y="122.796875"/>
      <point x="315.078125" y="182.5625" type="curve"/>
      <point x="329.5" y="169.765625"/>
      <point x="348.3125" y="154.984375"/>
      <point x="364.53125" y="145.0" type="curve" smooth="yes"/>
      <point x="383.734375" y="132.625"/>
      <point x="390.984375" y="132.015625"/>
      <point x="401.015625" y="132.015625" type="curve" smooth="yes"/>
      <point x="413.296875" y="132.015625"/>
      <point x="419.125" y="139.0625"/>
      <point x="419.125" y="148.515625" type="curve" smooth="yes"/>
      <point x="419.125" y="157.5625"/>
      <point x="410.5" y="165.796875"/>
      <point x="399.640625" y="170.40625" type="curve" smooth="yes"/>
      <point x="381.859375" y="179.984375"/>
      <point x="364.484375" y="192.34375"/>
      <point x="350.296875" y="202.921875" type="curve"/>
      <point x="393.6875" y="225.328125"/>
      <point x="434.84375" y="242.140625"/>
      <point x="476.46875" y="256.765625" type="curve" smooth="yes"/>
      <point x="517.671875" y="270.78125"/>
      <point x="541.8125" y="277.40625"/>
      <point x="541.8125" y="288.859375" type="curve" smooth="yes"/>
      <point x="541.8125" y="300.328125"/>
      <point x="533.953125" y="305.34375"/>
      <point x="524.734375" y="305.34375" type="curve" smooth="yes"/>
      <point x="508.34375" y="305.34375"/>
      <point x="490.3125" y="299.328125"/>
      <point x="451.546875" y="286.125" type="curve" smooth="yes"/>
      <point x="415.53125" y="273.5"/>
      <point x="369.125" y="252.671875"/>
      <point x="321.9375" y="228.0625" type="curve"/>
      <point x="312.75" y="237.046875"/>
      <point x="303.734375" y="247.25"/>
      <point x="298.328125" y="254.453125" type="curve" smooth="yes"/>
      <point x="287.125" y="270.25"/>
      <point x="282.109375" y="276.0625"/>
      <point x="272.65625" y="276.0625" type="curve" smooth="yes"/>
      <point x="260.1875" y="276.0625"/>
      <point x="255.140625" y="265.78125"/>
      <point x="255.140625" y="256.125" type="curve" smooth="yes"/>
      <point x="255.140625" y="248.484375"/>
      <point x="267.71875" y="228.890625"/>
      <point x="287.09375" y="207.109375" type="curve"/>
      <point x="168.84375" y="142.953125"/>
      <point x="43.421875" y="49.0625"/>
      <point x="43.421875" y="-41.765625" type="curve" smooth="yes"/>
      <point x="43.421875" y="-102.359375"/>
      <point x="95.640625" y="-151.21875"/>
    </contour>
  </outline>
</glyph>
<glyph name="uni0793" format="2">
  <advance width="671.0"/>
  <unicode hex="0793"/>
  <outline>
    <contour>
      <point x="246.3125" y="-167.15625" type="curve" smooth="yes"/>
      <point x="323.8125" y="-167.15625"/>
      <point x="386.5" y="-158.96875"/>
      <point x="436.890625" y="-143.75" type="curve" smooth="yes"/>
      <point x="450.9375" y="-139.125"/>
      <point x="459.5625" y="-132.296875"/>
      <point x="459.5625" y="-122.65625" type="curve" smooth="yes"/>
      <point x="459.5625" y="-113.203125"/>
      <point x="453.53125" y="-106.1875"/>
      <point x="441.09375" y="-106.1875" type="curve" smooth="yes"/>
      <point x="431.90625" y="-106.1875"/>
      <point x="422.3125" y="-108.984375"/>
      <point x="399.125" y="-115.375" type="curve" smooth="yes"/>
      <point x="369.9375" y="-123.5625"/>
      <point x="333.703125" y="-131.75"/>
      <point x="252.6875" y="-131.75" type="curve" smooth="yes"/>
      <point x="133.546875" y="-131.75"/>
      <point x="89.40625" y="-97.0"/>
      <point x="89.40625" y="-37.03125" type="curve" smooth="yes"/>
      <point x="89.40625" y="24.09375"/>
      <point x="172.0625" y="74.015625"/>
      <point x="277.515625" y="114.984375" type="curve"/>
      <point x="287.578125" y="114.171875"/>
      <point x="297.65625" y="113.765625"/>
      <point x="309.34375" y="113.765625" type="curve" smooth="yes"/>
      <point x="488.03125" y="113.765625"/>
      <point x="636.421875" y="205.3125"/>
      <point x="636.421875" y="299.75" type="curve" smooth="yes"/>
      <point x="636.421875" y="345.1875"/>
      <point x="602.625" y="382.59375"/>
      <point x="535.609375" y="382.59375" type="curve" smooth="yes"/>
      <point x="471.015625" y="382.59375"/>
      <point x="427.984375" y="349.8125"/>
      <point x="391.359375" y="316.40625" type="curve"/>
      <point x="360.734375" y="338.859375"/>
      <point x="322.28125" y="353.640625"/>
      <point x="281.546875" y="353.640625" type="curve" smooth="yes"/>
      <point x="185.484375" y="353.640625"/>
      <point x="124.71875" y="293.203125"/>
      <point x="124.71875" y="231.625" type="curve" smooth="yes"/>
      <point x="124.71875" y="181.46875"/>
      <point x="163.234375" y="141.890625"/>
      <point x="226.953125" y="125.65625" type="curve"/>
      <point x="129.21875" y="79.828125"/>
      <point x="52.984375" y="26.265625"/>
      <point x="52.984375" y="-41.5" type="curve" smooth="yes"/>
      <point x="52.984375" y="-115.125"/>
      <point x="109.609375" y="-167.15625"/>
    </contour>
    <contour>
      <point x="268.734375" y="147.578125" type="curve"/>
      <point x="215.390625" y="153.984375"/>
      <point x="160.140625" y="181.734375"/>
      <point x="160.140625" y="231.625" type="curve" smooth="yes"/>
      <point x="160.140625" y="276.703125"/>
      <point x="205.609375" y="321.453125"/>
      <point x="279.34375" y="321.453125" type="curve" smooth="yes"/>
      <point x="313.3125" y="321.453125"/>
      <point x="346.4375" y="311.859375"/>
      <point x="368.609375" y="292.875" type="curve"/>
      <point x="332.65625" y="251.546875"/>
      <point x="295.109375" y="194.28125"/>
    </contour>
    <contour>
      <point x="306.796875" y="145.359375" type="curve"/>
      <point x="390.46875" y="292.390625"/>
      <point x="457.03125" y="350.203125"/>
      <point x="531.140625" y="350.203125" type="curve" smooth="yes"/>
      <point x="580.046875" y="350.203125"/>
      <point x="600.796875" y="325.25"/>
      <point x="600.796875" y="297.921875" type="curve" smooth="yes"/>
      <point x="600.796875" y="229.640625"/>
      <point x="484.125" y="146.171875"/>
    </contour>
  </outline>
</glyph>
<glyph name="uni0794" format="2">
  <advance width="688.15625"/>
  <unicode hex="0794"/>
  <outline>
    <contour>
      <point x="-22.5" y="-78.0" type="curve" smooth="yes"/>
      <point x="8.46875" y="-78.0"/>
      <point x="96.53125" y="-35.703125"/>
      <point x="163.40625" y="13.5" type="curve" smooth="yes"/>
      <point x="221.125" y="55.734375"/>
      <point x="311.90625" y="145.734375"/>
      <point x="373.203125" y="229.96875" type="curve"/>
      <point x="470.03125" y="230.984375"/>
      <point x="522.390625" y="256.546875"/>
      <point x="587.125" y="302.84375" type="curve"/>
      <point x="577.9375" y="235.46875"/>
      <point x="552.625" y="176.0625"/>
      <point x="509.515625" y="92.28125" type="curve" smooth="yes"/>
      <point x="497.125" y="68.71875"/>
      <point x="481.140625" y="55.9375"/>
      <point x="481.140625" y="45.078125" type="curve" smooth="yes"/>
      <point x="481.140625" y="34.828125"/>
      <point x="489.578125" y="28.390625"/>
      <point x="500.84375" y="28.390625" type="curve" smooth="yes"/>
      <point x="511.875" y="28.390625"/>
      <point x="523.3125" y="38.609375"/>
      <point x="540.6875" y="72.53125" type="curve" smooth="yes"/>
      <point x="575.953125" y="135.734375"/>
      <point x="623.5625" y="246.484375"/>
      <point x="623.5625" y="329.921875" type="curve" smooth="yes"/>
      <point x="623.5625" y="348.65625"/>
      <point x="616.96875" y="355.9375"/>
      <point x="606.484375" y="355.9375" type="curve" smooth="yes"/>
      <point x="597.65625" y="355.9375"/>
      <point x="586.640625" y="340.5625"/>
      <point x="569.234375" y="328.5625" type="curve" smooth="yes"/>
      <point x="521.703125" y="295.21875"/>
      <point x="467.171875" y="267.640625"/>
      <point x="388.046875" y="267.21875" type="curve"/>
      <point x="381.203125" y="282.28125"/>
      <point x="361.5625" y="299.5"/>
      <point x="340.890625" y="299.5" type="curve" smooth="yes"/>
      <point x="319.75" y="299.5"/>
      <point x="307.078125" y="285.0"/>
      <point x="307.078125" y="268.296875" type="curve" smooth="yes"/>
      <point x="307.078125" y="256.4375"/>
      <point x="318.109375" y="245.390625"/>
      <point x="336.359375" y="238.96875" type="curve"/>
      <point x="282.765625" y="165.640625"/>
      <point x="212.578125" y="96.5"/>
      <point x="141.125" y="46.734375" type="curve" smooth="yes"/>
      <point x="81.796875" y="3.625"/>
      <point x="21.859375" y="-18.546875"/>
      <point x="-19.375" y="-30.546875" type="curve" smooth="yes"/>
      <point x="-39.015625" y="-35.953125"/>
      <point x="-47.046875" y="-43.0"/>
      <point x="-47.046875" y="-56.859375" type="curve" smooth="yes"/>
      <point x="-47.046875" y="-68.546875"/>
      <point x="-39.59375" y="-78.0"/>
    </contour>
  </outline>
</glyph>
<glyph name="uni0796" format="2">
  <advance width="583.0"/>
  <unicode hex="0796"/>
  <outline>
    <contour>
      <point x="244.28125" y="-167.15625" type="curve" smooth="yes"/>
      <point x="320.765625" y="-167.15625"/>
      <point x="381.21875" y="-159.375"/>
      <point x="432.21875" y="-144.765625" type="curve" smooth="yes"/>
      <point x="447.484375" y="-140.140625"/>
      <point x="457.53125" y="-133.109375"/>
      <point x="457.53125" y="-122.65625" type="curve" smooth="yes"/>
      <point x="457.53125" y="-113.203125"/>
      <point x="451.5" y="-106.1875"/>
      <point x="439.0625" y="-106.1875" type="curve" smooth="yes"/>
      <point x="430.28125" y="-106.1875"/>
      <point x="418.453125" y="-109.390625"/>
      <point x="394.65625" y="-115.78125" type="curve" smooth="yes"/>
      <point x="365.46875" y="-123.765625"/>
      <point x="330.453125" y="-131.75"/>
      <point x="250.65625" y="-131.75" type="curve" smooth="yes"/>
      <point x="131.515625" y="-131.75"/>
      <point x="87.171875" y="-97.0"/>
      <point x="87.171875" y="-37.03125" type="curve" smooth="yes"/>
      <point x="87.171875" y="19.484375"/>
      <point x="158.21875" y="66.40625"/>
      <point x="240.890625" y="102.96875" type="curve"/>
      <point x="259.53125" y="98.5625"/>
      <point x="281.15625" y="97.765625"/>
      <point x="298.140625" y="97.765625" type="curve" smooth="yes"/>
      <point x="395.375" y="97.765625"/>
      <point x="493.609375" y="167.109375"/>
      <point x="493.609375" y="244.21875" type="curve" smooth="yes"/>
      <point x="493.609375" y="280.640625"/>
      <point x="474.375" y="306.859375"/>
      <point x="430.890625" y="323.8125" type="curve"/>
      <point x="473.859375" y="334.421875"/>
      <point x="523.78125" y="358.578125"/>
      <point x="523.78125" y="372.828125" type="curve" smooth="yes"/>
      <point x="523.78125" y="383.671875"/>
      <point x="518.734375" y="389.515625"/>
      <point x="506.09375" y="389.515625" type="curve" smooth="yes"/>
      <point x="495.84375" y="389.515625"/>
      <point x="480.25" y="371.515625"/>
      <point x="442.25" y="358.109375" type="curve" smooth="yes"/>
      <point x="408.203125" y="345.6875"/>
      <point x="376.59375" y="339.90625"/>
      <point x="376.59375" y="325.625" type="curve" smooth="yes"/>
      <point x="376.59375" y="316.578125"/>
      <point x="381.828125" y="313.5625"/>
      <point x="395.0625" y="307.34375" type="curve" smooth="yes"/>
      <point x="431.59375" y="290.375"/>
      <point x="456.171875" y="277.609375"/>
      <point x="456.171875" y="241.421875" type="curve" smooth="yes"/>
      <point x="456.171875" y="186.859375"/>
      <point x="377.296875" y="131.984375"/>
      <point x="305.21875" y="131.984375" type="curve" smooth="yes"/>
      <point x="288.015625" y="131.984375"/>
      <point x="271.8125" y="133.984375"/>
      <point x="263.1875" y="135.796875" type="curve"/>
      <point x="256.390625" y="150.828125"/>
      <point x="237.1875" y="168.078125"/>
      <point x="219.9375" y="168.078125" type="curve" smooth="yes"/>
      <point x="205.078125" y="168.078125"/>
      <point x="189.765625" y="159.265625"/>
      <point x="189.765625" y="139.71875" type="curve" smooth="yes"/>
      <point x="189.765625" y="130.296875"/>
      <point x="196.15625" y="122.078125"/>
      <point x="205.75" y="116.859375" type="curve"/>
      <point x="117.015625" y="72.4375"/>
      <point x="50.953125" y="21.671875"/>
      <point x="50.953125" y="-41.5" type="curve" smooth="yes"/>
      <point x="50.953125" y="-115.125"/>
      <point x="107.578125" y="-167.15625"/>
    </contour>
  </outline>
</glyph>
<glyph name="uni0797" format="2">
  <advance width="646.0"/>
  <unicode hex="0797"/>
  <outline>
    <contour>
      <point x="-10.109375" y="-161.578125" type="curve" smooth="yes"/>
      <point x="7.90625" y="-161.578125"/>
      <point x="71.25" y="-140.984375"/>
      <point x="132.453125" y="-106.15625" type="curve" smooth="yes"/>
      <point x="184.203125" y="-76.765625"/>
      <point x="214.25" y="-41.515625"/>
      <point x="214.25" y="-7.28125" type="curve" smooth="yes"/>
      <point x="214.25" y="18.890625"/>
      <point x="199.265625" y="31.703125"/>
      <point x="173.71875" y="50.875" type="curve" smooth="yes"/>
      <point x="149.359375" y="69.859375"/>
      <point x="139.140625" y="77.46875"/>
      <point x="139.140625" y="87.0625" type="curve" smooth="yes"/>
      <point x="139.140625" y="101.453125"/>
      <point x="166.09375" y="133.375"/>
      <point x="220.359375" y="176.265625" type="curve"/>
      <point x="255.328125" y="97.15625"/>
      <point x="315.484375" y="64.78125"/>
      <point x="385.671875" y="64.78125" type="curve" smooth="yes"/>
      <point x="451.453125" y="64.78125"/>
      <point x="516.96875" y="109.578125"/>
      <point x="516.96875" y="173.078125" type="curve" smooth="yes"/>
      <point x="516.96875" y="230.09375"/>
      <point x="460.84375" y="276.078125"/>
      <point x="350.484375" y="276.3125" type="curve"/>
      <point x="468.78125" y="353.828125"/>
      <point x="610.21875" y="438.921875"/>
      <point x="669.515625" y="462.703125" type="curve" smooth="yes"/>
      <point x="692.34375" y="472.53125"/>
      <point x="701.765625" y="479.96875"/>
      <point x="701.765625" y="490.390625" type="curve" smooth="yes"/>
      <point x="701.765625" y="502.0625"/>
      <point x="692.703125" y="505.46875"/>
      <point x="681.890625" y="505.46875" type="curve" smooth="yes"/>
      <point x="672.078125" y="505.46875"/>
      <point x="655.078125" y="499.28125"/>
      <point x="629.703125" y="485.890625" type="curve" smooth="yes"/>
      <point x="569.671875" y="453.265625"/>
      <point x="464.953125" y="391.3125"/>
      <point x="371.203125" y="328.34375" type="curve" smooth="yes"/>
      <point x="235.140625" y="236.703125"/>
      <point x="101.90625" y="131.671875"/>
      <point x="101.90625" y="81.84375" type="curve" smooth="yes"/>
      <point x="101.90625" y="71.234375"/>
      <point x="113.703125" y="57.4375"/>
      <point x="138.453125" y="39.859375" type="curve" smooth="yes"/>
      <point x="163.203125" y="22.28125"/>
      <point x="177.1875" y="6.5"/>
      <point x="177.1875" y="-9.875" type="curve" smooth="yes"/>
      <point x="177.1875" y="-49.84375"/>
      <point x="92.234375" y="-92.171875"/>
      <point x="-6.78125" y="-117.53125" type="curve" smooth="yes"/>
      <point x="-23.234375" y="-121.75"/>
      <point x="-33.0625" y="-127.59375"/>
      <point x="-33.0625" y="-141.453125" type="curve" smooth="yes"/>
      <point x="-33.0625" y="-154.734375"/>
      <point x="-26.40625" y="-161.578125"/>
    </contour>
    <contour>
      <point x="386.671875" y="97.578125" type="curve" smooth="yes"/>
      <point x="316.59375" y="97.578125"/>
      <point x="271.109375" y="140.5"/>
      <point x="249.5625" y="198.390625" type="curve"/>
      <point x="279.15625" y="226.78125"/>
      <point x="320.5" y="248.546875"/>
      <point x="340.515625" y="248.546875" type="curve" smooth="yes"/>
      <point x="438.453125" y="248.546875"/>
      <point x="481.34375" y="215.609375"/>
      <point x="481.34375" y="173.6875" type="curve" smooth="yes"/>
      <point x="481.34375" y="126.34375"/>
      <point x="436.203125" y="97.578125"/>
    </contour>
  </outline>
</glyph>
<glyph name="uni0798" format="2">
  <advance width="618.0"/>
  <unicode hex="0798"/>
  <outline>
    <contour>
      <point x="59.0" y="-47.1875" type="curve" smooth="yes"/>
      <point x="140.203125" y="-47.1875"/>
      <point x="257.625" y="-5.359375"/>
      <point x="257.625" y="61.078125" type="curve" smooth="yes"/>
      <point x="257.625" y="81.296875"/>
      <point x="245.015625" y="99.5"/>
      <point x="206.90625" y="119.28125" type="curve" smooth="yes"/>
      <point x="188.125" y="129.296875"/>
      <point x="163.96875" y="140.890625"/>
      <point x="163.96875" y="154.265625" type="curve" smooth="yes"/>
      <point x="163.96875" y="181.796875"/>
      <point x="207.46875" y="214.71875"/>
      <point x="248.390625" y="240.671875" type="curve"/>
      <point x="297.171875" y="191.90625"/>
      <point x="364.734375" y="165.75"/>
      <point x="418.0625" y="165.75" type="curve" smooth="yes"/>
      <point x="492.671875" y="165.75"/>
      <point x="570.140625" y="215.359375"/>
      <point x="570.140625" y="296.015625" type="curve" smooth="yes"/>
      <point x="570.140625" y="340.265625"/>
      <point x="545.53125" y="367.09375"/>
      <point x="483.734375" y="367.09375" type="curve" smooth="yes"/>
      <point x="360.71875" y="367.09375"/>
      <point x="125.53125" y="229.84375"/>
      <point x="125.53125" y="147.015625" type="curve" smooth="yes"/>
      <point x="125.53125" y="133.015625"/>
      <point x="136.953125" y="119.828125"/>
      <point x="168.6875" y="104.84375" type="curve" smooth="yes"/>
      <point x="201.609375" y="89.265625"/>
      <point x="219.78125" y="77.875"/>
      <point x="219.78125" y="59.296875" type="curve" smooth="yes"/>
      <point x="219.78125" y="11.171875"/>
      <point x="121.1875" y="-11.1875"/>
      <point x="64.390625" y="-11.1875" type="curve" smooth="yes"/>
      <point x="43.625" y="-11.1875"/>
      <point x="20.046875" y="-7.390625"/>
      <point x="6.453125" y="-4.1875" type="curve" smooth="yes"/>
      <point x="-8.53125" y="-0.984375"/>
      <point x="-20.125" y="5.203125"/>
      <point x="-30.9375" y="5.203125" type="curve" smooth="yes"/>
      <point x="-44.0" y="5.203125"/>
      <point x="-50.421875" y="-2.640625"/>
      <point x="-50.421875" y="-14.703125" type="curve" smooth="yes"/>
      <point x="-50.421875" y="-23.9375"/>
      <point x="-43.203125" y="-32.359375"/>
      <point x="-27.59375" y="-37.171875" type="curve" smooth="yes"/>
      <point x="-8.578125" y="-43.1875"/>
      <point x="20.828125" y="-47.1875"/>
    </contour>
    <contour>
      <point x="419.078125" y="200.9375" type="curve" smooth="yes"/>
      <point x="370.96875" y="200.9375"/>
      <point x="320.6875" y="225.078125"/>
      <point x="279.78125" y="261.1875" type="curve"/>
      <point x="356.875" y="306.125"/>
      <point x="439.5625" y="332.3125"/>
      <point x="477.875" y="332.3125" type="curve" smooth="yes"/>
      <point x="511.78125" y="332.3125"/>
      <point x="532.921875" y="323.9375"/>
      <point x="532.921875" y="292.21875" type="curve" smooth="yes"/>
      <point x="532.921875" y="243.28125"/>
      <point x="480.453125" y="200.9375"/>
    </contour>
    <contour>
      <point x="463.375" y="534.625" type="curve" smooth="yes"/>
      <point x="479.21875" y="534.625"/>
      <point x="494.265625" y="545.46875"/>
      <point x="494.265625" y="560.53125" type="curve" smooth="yes"/>
      <point x="494.265625" y="573.1875"/>
      <point x="483.828125" y="582.234375"/>
      <point x="470.171875" y="582.234375" type="curve" smooth="yes"/>
      <point x="450.9375" y="582.234375"/>
      <point x="437.890625" y="570.390625"/>
      <point x="437.890625" y="556.921875" type="curve" smooth="yes"/>
      <point x="437.890625" y="544.265625"/>
      <point x="446.734375" y="534.625"/>
    </contour>
    <contour>
      <point x="364.546875" y="415.0" type="curve" smooth="yes"/>
      <point x="380.390625" y="415.0"/>
      <point x="395.4375" y="425.84375"/>
      <point x="395.4375" y="440.90625" type="curve" smooth="yes"/>
      <point x="395.4375" y="453.5625"/>
      <point x="385.0" y="462.609375"/>
      <point x="371.34375" y="462.609375" type="curve" smooth="yes"/>
      <point x="352.3125" y="462.609375"/>
      <point x="339.0625" y="450.765625"/>
      <point x="339.0625" y="437.296875" type="curve" smooth="yes"/>
      <point x="339.0625" y="424.640625"/>
      <point x="347.90625" y="415.0"/>
    </contour>
    <contour>
      <point x="537.8125" y="415.0" type="curve" smooth="yes"/>
      <point x="553.859375" y="415.0"/>
      <point x="568.90625" y="425.84375"/>
      <point x="568.90625" y="440.90625" type="curve" smooth="yes"/>
      <point x="568.90625" y="453.5625"/>
      <point x="558.265625" y="462.609375"/>
      <point x="544.8125" y="462.609375" type="curve" smooth="yes"/>
      <point x="525.578125" y="462.609375"/>
      <point x="512.53125" y="450.765625"/>
      <point x="512.53125" y="437.296875" type="curve" smooth="yes"/>
      <point x="512.53125" y="424.640625"/>
      <point x="521.171875" y="415.0"/>
    </contour>
  </outline>
</glyph>
<glyph name="uni0799" format="2">
  <advance width="529.0"/>
  <unicode hex="0799"/>
  <outline>
    <contour>
      <point x="48.703125" y="-7.609375" type="curve" smooth="yes"/>
      <point x="72.28125" y="-7.609375"/>
      <point x="145.796875" y="15.953125"/>
      <point x="224.15625" y="62.140625" type="curve" smooth="yes"/>
      <point x="323.1875" y="120.375"/>
      <point x="446.171875" y="227.75"/>
      <point x="493.953125" y="291.765625" type="curve" smooth="yes"/>
      <point x="505.953125" y="308.171875"/>
      <point x="509.5625" y="316.0"/>
      <point x="509.5625" y="322.421875" type="curve" smooth="yes"/>
      <point x="509.5625" y="329.453125"/>
      <point x="505.953125" y="334.703125"/>
      <point x="497.6875" y="334.703125" type="curve" smooth="yes"/>
      <point x="489.0625" y="334.703125"/>
      <point x="481.625" y="327.09375"/>
      <point x="469.40625" y="312.875" type="curve" smooth="yes"/>
      <point x="373.34375" y="205.03125"/>
      <point x="284.578125" y="144.359375"/>
      <point x="202.453125" y="98.171875" type="curve" smooth="yes"/>
      <point x="159.6875" y="74.1875"/>
      <point x="95.1875" y="47.4375"/>
      <point x="43.640625" y="38.03125" type="curve" smooth="yes"/>
      <point x="30.59375" y="35.015625"/>
      <point x="23.765625" y="25.75"/>
      <point x="23.765625" y="14.5" type="curve" smooth="yes"/>
      <point x="23.765625" y="0.234375"/>
      <point x="34.609375" y="-7.609375"/>
    </contour>
    <contour>
      <point x="413.59375" y="0.0" type="curve" smooth="yes"/>
      <point x="429.4375" y="0.0"/>
      <point x="444.484375" y="10.84375"/>
      <point x="444.484375" y="25.90625" type="curve" smooth="yes"/>
      <point x="444.484375" y="38.5625"/>
      <point x="433.84375" y="47.609375"/>
      <point x="420.390625" y="47.609375" type="curve" smooth="yes"/>
      <point x="401.15625" y="47.609375"/>
      <point x="388.109375" y="35.765625"/>
      <point x="388.109375" y="22.296875" type="curve" smooth="yes"/>
      <point x="388.109375" y="9.640625"/>
      <point x="396.75" y="0.0"/>
    </contour>
  </outline>
</glyph>
<glyph name="uni079A" format="2">
  <advance width="529.0"/>
  <unicode hex="079A"/>
  <outline>
    <contour>
      <point x="48.703125" y="-7.609375" type="curve" smooth="yes"/>
      <point x="72.28125" y="-7.609375"/>
      <point x="145.796875" y="15.953125"/>
      <point x="224.15625" y="62.140625" type="curve" smooth="yes"/>
      <point x="323.1875" y="120.375"/>
      <point x="446.171875" y="227.75"/>
      <point x="493.953125" y="291.765625" type="curve" smooth="yes"/>
      <point x="505.953125" y="308.171875"/>
      <point x="509.5625" y="316.0"/>
      <point x="509.5625" y="322.421875" type="curve" smooth="yes"/>
      <point x="509.5625" y="329.453125"/>
      <point x="505.953125" y="334.703125"/>
      <point x="497.6875" y="334.703125" type="curve" smooth="yes"/>
      <point x="489.0625" y="334.703125"/>
      <point x="481.625" y="327.09375"/>
      <point x="469.40625" y="312.875" type="curve" smooth="yes"/>
      <point x="373.34375" y="205.03125"/>
      <point x="284.578125" y="144.359375"/>
      <point x="202.453125" y="98.171875" type="curve" smooth="yes"/>
      <point x="159.6875" y="74.1875"/>
      <point x="95.1875" y="47.4375"/>
      <point x="43.640625" y="38.03125" type="curve" smooth="yes"/>
      <point x="30.59375" y="35.015625"/>
      <point x="23.765625" y="25.75"/>
      <point x="23.765625" y="14.5" type="curve" smooth="yes"/>
      <point x="23.765625" y="0.234375"/>
      <point x="34.609375" y="-7.609375"/>
    </contour>
    <contour>
      <point x="417.375" y="459.25" type="curve" smooth="yes"/>
      <point x="433.21875" y="459.25"/>
      <point x="448.265625" y="470.09375"/>
      <point x="448.265625" y="484.953125" type="curve" smooth="yes"/>
      <point x="448.265625" y="497.609375"/>
      <point x="437.625" y="506.859375"/>
      <point x="424.171875" y="506.859375" type="curve" smooth="yes"/>
      <point x="404.9375" y="506.859375"/>
      <point x="391.890625" y="495.015625"/>
      <point x="391.890625" y="481.546875" type="curve" smooth="yes"/>
      <point x="391.890625" y="468.890625"/>
      <point x="400.53125" y="459.25"/>
    </contour>
  </outline>
</glyph>
<glyph name="uni079C" format="2">
  <advance width="649.0"/>
  <unicode hex="079C"/>
  <outline>
    <contour>
      <point x="-28.875" y="-73.21875" type="curve" smooth="yes"/>
      <point x="-4.484375" y="-73.21875"/>
      <point x="70.859375" y="-48.828125"/>
      <point x="148.40625" y="-3.0625" type="curve" smooth="yes"/>
      <point x="219.84375" y="39.15625"/>
      <point x="317.5625" y="126.53125"/>
      <point x="404.9375" y="211.46875" type="curve"/>
      <point x="452.328125" y="190.890625"/>
      <point x="513.28125" y="174.71875"/>
      <point x="566.234375" y="174.71875" type="curve" smooth="yes"/>
      <point x="583.9375" y="174.71875"/>
      <point x="596.03125" y="181.140625"/>
      <point x="596.03125" y="192.203125" type="curve" smooth="yes"/>
      <point x="596.03125" y="204.671875"/>
      <point x="583.59375" y="209.3125"/>
      <point x="549.578125" y="211.703125" type="curve" smooth="yes"/>
      <point x="512.21875" y="214.890625"/>
      <point x="467.109375" y="227.65625"/>
      <point x="437.953125" y="238.4375" type="curve"/>
      <point x="487.359375" y="283.421875"/>
      <point x="548.78125" y="327.703125"/>
      <point x="601.5" y="350.28125" type="curve" smooth="yes"/>
      <point x="615.5625" y="356.71875"/>
      <point x="626.828125" y="362.96875"/>
      <point x="626.828125" y="372.0" type="curve" smooth="yes"/>
      <point x="626.828125" y="379.484375"/>
      <point x="620.15625" y="381.890625"/>
      <point x="612.53125" y="381.890625" type="curve" smooth="yes"/>
      <point x="583.0625" y="381.890625"/>
      <point x="492.75" y="338.515625"/>
      <point x="405.78125" y="257.578125" type="curve"/>
      <point x="353.3125" y="285.75"/>
      <point x="340.875" y="297.765625"/>
      <point x="326.984375" y="297.765625" type="curve" smooth="yes"/>
      <point x="312.46875" y="297.765625"/>
      <point x="306.4375" y="287.078125"/>
      <point x="306.4375" y="277.625" type="curve" smooth="yes"/>
      <point x="306.4375" y="268.5625"/>
      <point x="321.640625" y="255.328125"/>
      <point x="373.140625" y="227.5625" type="curve"/>
      <point x="299.578125" y="159.0"/>
      <point x="224.609375" y="87.28125"/>
      <point x="124.875" y="31.75" type="curve" smooth="yes"/>
      <point x="60.203125" y="-4.765625"/>
      <point x="18.625" y="-16.171875"/>
      <point x="-32.921875" y="-26.96875" type="curve" smooth="yes"/>
      <point x="-46.78125" y="-30.1875"/>
      <point x="-54.21875" y="-37.421875"/>
      <point x="-54.21875" y="-49.6875" type="curve" smooth="yes"/>
      <point x="-54.21875" y="-64.5625"/>
      <point x="-43.578125" y="-73.21875"/>
    </contour>
    <contour>
      <point x="513.375" y="468.25" type="curve" smooth="yes"/>
      <point x="529.21875" y="468.25"/>
      <point x="544.265625" y="479.09375"/>
      <point x="544.265625" y="493.953125" type="curve" smooth="yes"/>
      <point x="544.265625" y="506.609375"/>
      <point x="533.625" y="515.859375"/>
      <point x="520.171875" y="515.859375" type="curve" smooth="yes"/>
      <point x="500.9375" y="515.859375"/>
      <point x="487.890625" y="504.015625"/>
      <point x="487.890625" y="490.546875" type="curve" smooth="yes"/>
      <point x="487.890625" y="477.890625"/>
      <point x="496.53125" y="468.25"/>
    </contour>
  </outline>
</glyph>
<glyph name="uni079D" format="2">
  <advance width="1019.0"/>
  <unicode hex="079D"/>
  <outline>
    <contour>
      <point x="45.515625" y="49.1875" type="curve" smooth="yes"/>
      <point x="56.9375" y="49.1875"/>
      <point x="73.75" y="53.203125"/>
      <point x="91.5625" y="61.21875" type="curve" smooth="yes"/>
      <point x="155.6875" y="88.8125"/>
      <point x="212.265625" y="135.8125"/>
      <point x="240.234375" y="200.140625" type="curve"/>
      <point x="320.390625" y="186.953125"/>
      <point x="419.34375" y="177.953125"/>
      <point x="553.9375" y="177.953125" type="curve" smooth="yes"/>
      <point x="750.15625" y="177.953125"/>
      <point x="856.296875" y="208.0625"/>
      <point x="913.421875" y="240.578125" type="curve" smooth="yes"/>
      <point x="947.984375" y="259.171875"/>
      <point x="969.578125" y="282.5625"/>
      <point x="983.984375" y="307.171875" type="curve" smooth="yes"/>
      <point x="997.578125" y="329.765625"/>
      <point x="1004.78125" y="349.5625"/>
      <point x="1004.78125" y="365.796875" type="curve" smooth="yes"/>
      <point x="1004.78125" y="375.65625"/>
      <point x="1000.359375" y="382.6875"/>
      <point x="987.90625" y="382.6875" type="curve" smooth="yes"/>
      <point x="976.25" y="382.6875"/>
      <point x="972.625" y="376.859375"/>
      <point x="965.796875" y="359.015625" type="curve" smooth="yes"/>
      <point x="951.390625" y="319.046875"/>
      <point x="922.796875" y="284.46875"/>
      <point x="878.234375" y="261.296875" type="curve" smooth="yes"/>
      <point x="844.796875" y="244.484375"/>
      <point x="727.34375" y="212.5625"/>
      <point x="552.921875" y="212.5625" type="curve" smooth="yes"/>
      <point x="430.578125" y="212.5625"/>
      <point x="330.234375" y="221.75"/>
      <point x="251.453125" y="234.34375" type="curve"/>
      <point x="242.671875" y="263.84375"/>
      <point x="222.015625" y="281.71875"/>
      <point x="199.703125" y="281.71875" type="curve" smooth="yes"/>
      <point x="179.609375" y="281.71875"/>
      <point x="164.734375" y="266.015625"/>
      <point x="164.734375" y="249.734375" type="curve" smooth="yes"/>
      <point x="164.734375" y="231.453125"/>
      <point x="180.171875" y="218.03125"/>
      <point x="204.015625" y="207.796875" type="curve"/>
      <point x="175.296875" y="147.109375"/>
      <point x="127.3125" y="108.75"/>
      <point x="50.09375" y="87.984375" type="curve" smooth="yes"/>
      <point x="33.234375" y="83.15625"/>
      <point x="24.796875" y="75.75"/>
      <point x="24.796875" y="66.6875" type="curve" smooth="yes"/>
      <point x="24.796875" y="57.421875"/>
      <point x="30.453125" y="49.1875"/>
    </contour>
    <contour>
      <point x="581.375" y="461.625" type="curve" smooth="yes"/>
      <point x="597.21875" y="461.625"/>
      <point x="612.265625" y="472.46875"/>
      <point x="612.265625" y="487.53125" type="curve" smooth="yes"/>
      <point x="612.265625" y="500.1875"/>
      <point x="601.828125" y="509.234375"/>
      <point x="588.171875" y="509.234375" type="curve" smooth="yes"/>
      <point x="568.9375" y="509.234375"/>
      <point x="555.890625" y="497.390625"/>
      <point x="555.890625" y="483.921875" type="curve" smooth="yes"/>
      <point x="555.890625" y="471.265625"/>
      <point x="564.734375" y="461.625"/>
    </contour>
    <contour>
      <point x="482.546875" y="342.0" type="curve" smooth="yes"/>
      <point x="498.390625" y="342.0"/>
      <point x="513.4375" y="352.84375"/>
      <point x="513.4375" y="367.90625" type="curve" smooth="yes"/>
      <point x="513.4375" y="380.5625"/>
      <point x="503.0" y="389.609375"/>
      <point x="489.34375" y="389.609375" type="curve" smooth="yes"/>
      <point x="470.3125" y="389.609375"/>
      <point x="457.0625" y="377.765625"/>
      <point x="457.0625" y="364.296875" type="curve" smooth="yes"/>
      <point x="457.0625" y="351.640625"/>
      <point x="465.90625" y="342.0"/>
    </contour>
    <contour>
      <point x="655.8125" y="342.0" type="curve" smooth="yes"/>
      <point x="671.859375" y="342.0"/>
      <point x="686.90625" y="352.84375"/>
      <point x="686.90625" y="367.90625" type="curve" smooth="yes"/>
      <point x="686.90625" y="380.5625"/>
      <point x="676.265625" y="389.609375"/>
      <point x="662.8125" y="389.609375" type="curve" smooth="yes"/>
      <point x="643.578125" y="389.609375"/>
      <point x="630.53125" y="377.765625"/>
      <point x="630.53125" y="364.296875" type="curve" smooth="yes"/>
      <point x="630.53125" y="351.640625"/>
      <point x="639.171875" y="342.0"/>
    </contour>
  </outline>
</glyph>
<glyph name="uni079E" format="2">
  <advance width="1019.0"/>
  <unicode hex="079E"/>
  <outline>
    <contour>
      <point x="45.515625" y="49.1875" type="curve" smooth="yes"/>
      <point x="56.9375" y="49.1875"/>
      <point x="73.75" y="53.203125"/>
      <point x="91.5625" y="61.21875" type="curve" smooth="yes"/>
      <point x="155.6875" y="88.8125"/>
      <point x="212.265625" y="135.8125"/>
      <point x="240.234375" y="200.140625" type="curve"/>
      <point x="320.390625" y="186.953125"/>
      <point x="419.34375" y="177.953125"/>
      <point x="553.9375" y="177.953125" type="curve" smooth="yes"/>
      <point x="750.15625" y="177.953125"/>
      <point x="856.296875" y="208.0625"/>
      <point x="913.421875" y="240.578125" type="curve" smooth="yes"/>
      <point x="947.984375" y="259.171875"/>
      <point x="969.578125" y="282.5625"/>
      <point x="983.984375" y="307.171875" type="curve" smooth="yes"/>
      <point x="997.578125" y="329.765625"/>
      <point x="1004.78125" y="349.5625"/>
      <point x="1004.78125" y="365.796875" type="curve" smooth="yes"/>
      <point x="1004.78125" y="375.65625"/>
      <point x="1000.359375" y="382.6875"/>
      <point x="987.90625" y="382.6875" type="curve" smooth="yes"/>
      <point x="976.25" y="382.6875"/>
      <point x="972.625" y="376.859375"/>
      <point x="965.796875" y="359.015625" type="curve" smooth="yes"/>
      <point x="951.390625" y="319.046875"/>
      <point x="922.796875" y="284.46875"/>
      <point x="878.234375" y="261.296875" type="curve" smooth="yes"/>
      <point x="844.796875" y="244.484375"/>
      <point x="727.34375" y="212.5625"/>
      <point x="552.921875" y="212.5625" type="curve" smooth="yes"/>
      <point x="430.578125" y="212.5625"/>
      <point x="330.234375" y="221.75"/>
      <point x="251.453125" y="234.34375" type="curve"/>
      <point x="242.671875" y="263.84375"/>
      <point x="222.015625" y="281.71875"/>
      <point x="199.703125" y="281.71875" type="curve" smooth="yes"/>
      <point x="179.609375" y="281.71875"/>
      <point x="164.734375" y="266.015625"/>
      <point x="164.734375" y="249.734375" type="curve" smooth="yes"/>
      <point x="164.734375" y="231.453125"/>
      <point x="180.171875" y="218.03125"/>
      <point x="204.015625" y="207.796875" type="curve"/>
      <point x="175.296875" y="147.109375"/>
      <point x="127.3125" y="108.75"/>
      <point x="50.09375" y="87.984375" type="curve" smooth="yes"/>
      <point x="33.234375" y="83.15625"/>
      <point x="24.796875" y="75.75"/>
      <point x="24.796875" y="66.6875" type="curve" smooth="yes"/>
      <point x="24.796875" y="57.421875"/>
      <point x="30.453125" y="49.1875"/>
    </contour>
    <contour>
      <point x="533.59375" y="0.0" type="curve" smooth="yes"/>
      <point x="549.4375" y="0.0"/>
      <point x="564.484375" y="10.84375"/>
      <point x="564.484375" y="25.90625" type="curve" smooth="yes"/>
      <point x="564.484375" y="38.5625"/>
      <point x="553.84375" y="47.609375"/>
      <point x="540.390625" y="47.609375" type="curve" smooth="yes"/>
      <point x="521.15625" y="47.609375"/>
      <point x="508.109375" y="35.765625"/>
      <point x="508.109375" y="22.296875" type="curve" smooth="yes"/>
      <point x="508.109375" y="9.640625"/>
      <point x="516.75" y="0.0"/>
    </contour>
  </outline>
</glyph>
<glyph name="uni07A1" format="2">
  <advance width="649.0"/>
  <unicode hex="07A1"/>
  <outline>
    <contour>
      <point x="91.0" y="-47.1875" type="curve" smooth="yes"/>
      <point x="172.203125" y="-47.1875"/>
      <point x="289.625" y="-5.359375"/>
      <point x="289.625" y="61.078125" type="curve" smooth="yes"/>
      <point x="289.625" y="81.296875"/>
      <point x="277.015625" y="99.5"/>
      <point x="238.90625" y="119.28125" type="curve" smooth="yes"/>
      <point x="220.125" y="129.296875"/>
      <point x="195.96875" y="140.890625"/>
      <point x="195.96875" y="154.265625" type="curve" smooth="yes"/>
      <point x="195.96875" y="181.796875"/>
      <point x="239.46875" y="214.71875"/>
      <point x="280.390625" y="240.671875" type="curve"/>
      <point x="329.171875" y="191.90625"/>
      <point x="396.734375" y="165.75"/>
      <point x="450.0625" y="165.75" type="curve" smooth="yes"/>
      <point x="524.671875" y="165.75"/>
      <point x="602.140625" y="215.359375"/>
      <point x="602.140625" y="296.015625" type="curve" smooth="yes"/>
      <point x="602.140625" y="340.265625"/>
      <point x="577.53125" y="367.09375"/>
      <point x="515.734375" y="367.09375" type="curve" smooth="yes"/>
      <point x="392.71875" y="367.09375"/>
      <point x="157.53125" y="229.84375"/>
      <point x="157.53125" y="147.015625" type="curve" smooth="yes"/>
      <point x="157.53125" y="133.015625"/>
      <point x="168.953125" y="119.828125"/>
      <point x="200.6875" y="104.84375" type="curve" smooth="yes"/>
      <point x="233.609375" y="89.265625"/>
      <point x="251.78125" y="77.875"/>
      <point x="251.78125" y="59.296875" type="curve" smooth="yes"/>
      <point x="251.78125" y="11.171875"/>
      <point x="153.1875" y="-11.1875"/>
      <point x="96.390625" y="-11.1875" type="curve" smooth="yes"/>
      <point x="75.625" y="-11.1875"/>
      <point x="52.046875" y="-7.390625"/>
      <point x="38.453125" y="-4.1875" type="curve" smooth="yes"/>
      <point x="23.46875" y="-0.984375"/>
      <point x="11.875" y="5.203125"/>
      <point x="1.0625" y="5.203125" type="curve" smooth="yes"/>
      <point x="-12.0" y="5.203125"/>
      <point x="-18.421875" y="-2.640625"/>
      <point x="-18.421875" y="-14.703125" type="curve" smooth="yes"/>
      <point x="-18.421875" y="-23.9375"/>
      <point x="-11.203125" y="-32.359375"/>
      <point x="4.40625" y="-37.171875" type="curve" smooth="yes"/>
      <point x="23.421875" y="-43.1875"/>
      <point x="52.828125" y="-47.1875"/>
    </contour>
    <contour>
      <point x="451.078125" y="200.9375" type="curve" smooth="yes"/>
      <point x="402.96875" y="200.9375"/>
      <point x="352.6875" y="225.078125"/>
      <point x="311.78125" y="261.1875" type="curve"/>
      <point x="388.875" y="306.125"/>
      <point x="471.5625" y="332.3125"/>
      <point x="509.875" y="332.3125" type="curve" smooth="yes"/>
      <point x="543.78125" y="332.3125"/>
      <point x="564.921875" y="323.9375"/>
      <point x="564.921875" y="292.21875" type="curve" smooth="yes"/>
      <point x="564.921875" y="243.28125"/>
      <point x="512.453125" y="200.9375"/>
    </contour>
    <contour>
      <point x="492.375" y="468.25" type="curve" smooth="yes"/>
      <point x="508.21875" y="468.25"/>
      <point x="523.265625" y="479.09375"/>
      <point x="523.265625" y="493.953125" type="curve" smooth="yes"/>
      <point x="523.265625" y="506.609375"/>
      <point x="512.625" y="515.859375"/>
      <point x="499.171875" y="515.859375" type="curve" smooth="yes"/>
      <point x="479.9375" y="515.859375"/>
      <point x="466.890625" y="504.015625"/>
      <point x="466.890625" y="490.546875" type="curve" smooth="yes"/>
      <point x="466.890625" y="477.890625"/>
      <point x="475.53125" y="468.25"/>
    </contour>
  </outline>
</glyph>
<glyph name="uni07A3" format="2">
  <advance width="538.0"/>
  <unicode hex="07A3"/>
  <outline>
    <contour>
      <point x="-21.703125" y="-7.609375" type="curve" smooth="yes"/>
      <point x="8.890625" y="-7.609375"/>
      <point x="76.625" y="18.578125"/>
      <point x="153.75" y="62.546875" type="curve" smooth="yes"/>
      <point x="250.6875" y="118.125"/>
      <point x="379.15625" y="224.609375"/>
      <point x="433.40625" y="290.46875" type="curve"/>
      <point x="426.015625" y="218.0625"/>
      <point x="406.796875" y="141.203125"/>
      <point x="363.015625" y="61.109375" type="curve" smooth="yes"/>
      <point x="347.015625" y="31.9375"/>
      <point x="340.015625" y="23.328125"/>
      <point x="340.015625" y="15.6875" type="curve" smooth="yes"/>
      <point x="340.015625" y="5.234375"/>
      <point x="348.453125" y="-1.0"/>
      <point x="359.71875" y="-1.0" type="curve" smooth="yes"/>
      <point x="370.75" y="-1.0"/>
      <point x="381.984375" y="8.8125"/>
      <point x="399.359375" y="42.734375" type="curve" smooth="yes"/>
      <point x="432.234375" y="100.359375"/>
      <point x="470.8125" y="223.59375"/>
      <point x="470.8125" y="313.015625" type="curve" smooth="yes"/>
      <point x="470.8125" y="331.546875"/>
      <point x="462.59375" y="341.875"/>
      <point x="448.046875" y="341.875" type="curve" smooth="yes"/>
      <point x="433.328125" y="341.875"/>
      <point x="412.03125" y="319.171875"/>
      <point x="398.0" y="303.9375" type="curve" smooth="yes"/>
      <point x="314.09375" y="216.828125"/>
      <point x="236.359375" y="153.09375"/>
      <point x="133.671875" y="97.96875" type="curve" smooth="yes"/>
      <point x="58.03125" y="57.0625"/>
      <point x="26.609375" y="49.4375"/>
      <point x="-25.75" y="38.03125" type="curve" smooth="yes"/>
      <point x="-39.609375" y="34.609375"/>
      <point x="-47.046875" y="27.171875"/>
      <point x="-47.046875" y="14.90625" type="curve" smooth="yes"/>
      <point x="-47.046875" y="0.234375"/>
      <point x="-36.40625" y="-7.609375"/>
    </contour>
    <contour>
      <point x="421.375" y="468.25" type="curve" smooth="yes"/>
      <point x="437.21875" y="468.25"/>
      <point x="452.265625" y="479.09375"/>
      <point x="452.265625" y="493.953125" type="curve" smooth="yes"/>
      <point x="452.265625" y="506.609375"/>
      <point x="441.625" y="515.859375"/>
      <point x="428.171875" y="515.859375" type="curve" smooth="yes"/>
      <point x="408.9375" y="515.859375"/>
      <point x="395.890625" y="504.015625"/>
      <point x="395.890625" y="490.546875" type="curve" smooth="yes"/>
      <point x="395.890625" y="477.890625"/>
      <point x="404.53125" y="468.25"/>
    </contour>
  </outline>
</glyph>
<glyph name="uni07A4" format="2">
  <advance width="500.0"/>
  <unicode hex="07A4"/>
  <outline>
    <contour>
      <point x="77.78125" y="-39.21875" type="curve" smooth="yes"/>
      <point x="218.53125" y="-39.21875"/>
      <point x="347.03125" y="7.609375"/>
      <point x="347.03125" y="83.3125" type="curve" smooth="yes"/>
      <point x="347.03125" y="113.890625"/>
      <point x="322.046875" y="140.875"/>
      <point x="291.484375" y="162.46875" type="curve" smooth="yes"/>
      <point x="265.125" y="181.453125"/>
      <point x="245.546875" y="196.84375"/>
      <point x="245.546875" y="215.203125" type="curve" smooth="yes"/>
      <point x="245.546875" y="236.15625"/>
      <point x="272.890625" y="257.90625"/>
      <point x="311.03125" y="277.484375" type="curve" smooth="yes"/>
      <point x="360.921875" y="303.234375"/>
      <point x="401.484375" y="317.25"/>
      <point x="450.03125" y="332.859375" type="curve" smooth="yes"/>
      <point x="470.3125" y="340.3125"/>
      <point x="480.171875" y="345.9375"/>
      <point x="480.171875" y="354.578125" type="curve" smooth="yes"/>
      <point x="480.171875" y="363.234375"/>
      <point x="474.328125" y="370.28125"/>
      <point x="461.0625" y="370.28125" type="curve" smooth="yes"/>
      <point x="449.421875" y="370.28125"/>
      <point x="435.484375" y="364.015625"/>
      <point x="411.09375" y="355.203125" type="curve" smooth="yes"/>
      <point x="377.59375" y="341.734375"/>
      <point x="337.703125" y="327.15625"/>
      <point x="294.625" y="305.609375" type="curve" smooth="yes"/>
      <point x="226.09375" y="269.8125"/>
      <point x="208.109375" y="241.421875"/>
      <point x="208.109375" y="217.21875" type="curve" smooth="yes"/>
      <point x="208.109375" y="194.59375"/>
      <point x="228.5" y="170.59375"/>
      <point x="258.65625" y="148.203125" type="curve" smooth="yes"/>
      <point x="288.609375" y="126.015625"/>
      <point x="309.59375" y="106.828125"/>
      <point x="309.59375" y="80.6875" type="curve" smooth="yes"/>
      <point x="309.59375" y="28.546875"/>
      <point x="204.3125" y="-3.8125"/>
      <point x="87.609375" y="-3.8125" type="curve" smooth="yes"/>
      <point x="47.46875" y="-3.8125"/>
      <point x="12.125" y="6.171875"/>
      <point x="-0.890625" y="11.171875" type="curve" smooth="yes"/>
      <point x="-12.109375" y="15.375"/>
      <point x="-22.109375" y="20.765625"/>
      <point x="-31.515625" y="20.765625" type="curve" smooth="yes"/>
      <point x="-42.96875" y="20.765625"/>
      <point x="-50.421875" y="12.71875"/>
      <point x="-50.421875" y="2.25" type="curve" smooth="yes"/>
      <point x="-50.421875" y="-9.796875"/>
      <point x="-39.984375" y="-17.828125"/>
      <point x="-24.140625" y="-24.4375" type="curve" smooth="yes"/>
      <point x="-7.71875" y="-31.4375"/>
      <point x="34.21875" y="-39.21875"/>
    </contour>
    <contour>
      <point x="420.15625" y="420.0" type="curve" smooth="yes"/>
      <point x="436.0" y="420.0"/>
      <point x="451.046875" y="430.84375"/>
      <point x="451.046875" y="445.90625" type="curve" smooth="yes"/>
      <point x="451.046875" y="458.5625"/>
      <point x="440.40625" y="467.609375"/>
      <point x="426.953125" y="467.609375" type="curve" smooth="yes"/>
      <point x="407.71875" y="467.609375"/>
      <point x="394.671875" y="455.765625"/>
      <point x="394.671875" y="442.296875" type="curve" smooth="yes"/>
      <point x="394.671875" y="429.640625"/>
      <point x="403.3125" y="420.0"/>
    </contour>
    <contour>
      <point x="248.0" y="420.0" type="curve" smooth="yes"/>
      <point x="263.84375" y="420.0"/>
      <point x="278.890625" y="430.84375"/>
      <point x="278.890625" y="445.90625" type="curve" smooth="yes"/>
      <point x="278.890625" y="458.5625"/>
      <point x="268.25" y="467.609375"/>
      <point x="254.796875" y="467.609375" type="curve" smooth="yes"/>
      <point x="235.5625" y="467.609375"/>
      <point x="222.515625" y="455.765625"/>
      <point x="222.515625" y="442.296875" type="curve" smooth="yes"/>
      <point x="222.515625" y="429.640625"/>
      <point x="231.15625" y="420.0"/>
    </contour>
  </outline>
</glyph>
<glyph name="uni07A5" format="2">
  <advance width="506.0"/>
  <unicode hex="07A5"/>
  <outline>
    <contour>
      <point x="-56.09375" y="-88.359375" type="curve" smooth="yes"/>
      <point x="-30.890625" y="-88.359375"/>
      <point x="51.765625" y="-58.71875"/>
      <point x="149.421875" y="-0.390625" type="curve" smooth="yes"/>
      <point x="238.375" y="52.796875"/>
      <point x="361.109375" y="159.3125"/>
      <point x="407.359375" y="213.15625" type="curve" smooth="yes"/>
      <point x="442.359375" y="253.75"/>
      <point x="458.171875" y="287.1875"/>
      <point x="458.171875" y="318.640625" type="curve" smooth="yes"/>
      <point x="458.171875" y="366.0625"/>
      <point x="417.96875" y="382.6875"/>
      <point x="369.328125" y="382.6875" type="curve" smooth="yes"/>
      <point x="263.921875" y="382.6875"/>
      <point x="165.3125" y="302.0625"/>
      <point x="165.3125" y="225.234375" type="curve" smooth="yes"/>
      <point x="165.3125" y="182.65625"/>
      <point x="208.21875" y="150.65625"/>
      <point x="281.46875" y="143.203125" type="curve"/>
      <point x="256.421875" y="123.390625"/>
      <point x="191.875" y="72.28125"/>
      <point x="123.34375" y="33.140625" type="curve" smooth="yes"/>
      <point x="31.765625" y="-20.3125"/>
      <point x="-9.8125" y="-31.921875"/>
      <point x="-60.140625" y="-42.109375" type="curve" smooth="yes"/>
      <point x="-74.203125" y="-45.125"/>
      <point x="-81.4375" y="-52.96875"/>
      <point x="-81.4375" y="-65.234375" type="curve" smooth="yes"/>
      <point x="-81.4375" y="-79.90625"/>
      <point x="-70.796875" y="-88.359375"/>
    </contour>
    <contour>
      <point x="312.296875" y="168.546875" type="curve"/>
      <point x="263.1875" y="172.140625"/>
      <point x="202.53125" y="183.125"/>
      <point x="202.53125" y="229.046875" type="curve" smooth="yes"/>
      <point x="202.53125" y="290.375"/>
      <point x="288.8125" y="348.90625"/>
      <point x="363.875" y="348.90625" type="curve" smooth="yes"/>
      <point x="406.0" y="348.90625"/>
      <point x="421.359375" y="331.140625"/>
      <point x="421.359375" y="309.78125" type="curve" smooth="yes"/>
      <point x="421.359375" y="277.375"/>
      <point x="378.578125" y="221.25"/>
    </contour>
    <contour>
      <point x="356.375" y="468.25" type="curve" smooth="yes"/>
      <point x="372.21875" y="468.25"/>
      <point x="387.265625" y="479.09375"/>
      <point x="387.265625" y="493.953125" type="curve" smooth="yes"/>
      <point x="387.265625" y="506.609375"/>
      <point x="376.625" y="515.859375"/>
      <point x="363.171875" y="515.859375" type="curve" smooth="yes"/>
      <point x="343.9375" y="515.859375"/>
      <point x="330.890625" y="504.015625"/>
      <point x="330.890625" y="490.546875" type="curve" smooth="yes"/>
      <point x="330.890625" y="477.890625"/>
      <point x="339.53125" y="468.25"/>
    </contour>
  </outline>
</glyph>
<glyph name="uni07A6" format="2">
  <unicode hex="07A6"/>
  <outline>
    <contour>
      <point x="28.265625" y="459.484375" type="curve" smooth="yes"/>
      <point x="37.484375" y="459.484375"/>
      <point x="51.296875" y="463.28125"/>
      <point x="65.71875" y="467.890625" type="curve" smooth="yes"/>
      <point x="142.65625" y="492.671875"/>
      <point x="285.015625" y="567.46875"/>
      <point x="331.984375" y="609.453125" type="curve" smooth="yes"/>
      <point x="342.40625" y="619.078125"/>
      <point x="345.828125" y="623.71875"/>
      <point x="345.828125" y="632.75" type="curve" smooth="yes"/>
      <point x="345.828125" y="639.0"/>
      <point x="342.203125" y="647.21875"/>
      <point x="330.75" y="647.21875" type="curve" smooth="yes"/>
      <point x="323.515625" y="647.21875"/>
      <point x="318.078125" y="643.609375"/>
      <point x="303.046875" y="631.78125" type="curve" smooth="yes"/>
      <point x="215.5" y="562.8125"/>
      <point x="105.984375" y="513.25"/>
      <point x="34.671875" y="493.875" type="curve" smooth="yes"/>
      <point x="20.609375" y="489.859375"/>
      <point x="11.15625" y="485.4375"/>
      <point x="11.15625" y="474.5625" type="curve" smooth="yes"/>
      <point x="11.15625" y="464.5"/>
      <point x="19.015625" y="459.484375"/>
    </contour>
  </outline>
</glyph>
<glyph name="uni07A7" format="2">
  <unicode hex="07A7"/>
  <outline>
    <contour>
      <point x="27.46875" y="591.859375" type="curve" smooth="yes"/>
      <point x="36.6875" y="591.859375"/>
      <point x="50.5" y="594.859375"/>
      <point x="64.921875" y="600.265625" type="curve" smooth="yes"/>
      <point x="135.453125" y="627.234375"/>
      <point x="265.8125" y="701.234375"/>
      <point x="311.1875" y="741.828125" type="curve" smooth="yes"/>
      <point x="321.609375" y="751.453125"/>
      <point x="325.03125" y="756.09375"/>
      <point x="325.03125" y="765.125" type="curve" smooth="yes"/>
      <point x="325.03125" y="771.375"/>
      <point x="321.40625" y="779.59375"/>
      <point x="309.953125" y="779.59375" type="curve" smooth="yes"/>
      <point x="302.71875" y="779.59375"/>
      <point x="297.28125" y="775.984375"/>
      <point x="282.25" y="764.15625" type="curve" smooth="yes"/>
      <point x="198.703125" y="698.984375"/>
      <point x="99.59375" y="645.625"/>
      <point x="33.875" y="626.25" type="curve" smooth="yes"/>
      <point x="19.8125" y="622.03125"/>
      <point x="10.359375" y="617.8125"/>
      <point x="10.359375" y="606.9375" type="curve" smooth="yes"/>
      <point x="10.359375" y="596.875"/>
      <point x="18.21875" y="591.859375"/>
    </contour>
    <contour>
      <point x="90.234375" y="459.484375" type="curve" smooth="yes"/>
      <point x="99.453125" y="459.484375"/>
      <point x="113.265625" y="462.484375"/>
      <point x="127.6875" y="467.890625" type="curve" smooth="yes"/>
      <point x="197.421875" y="496.65625"/>
      <point x="330.171875" y="567.265625"/>
      <point x="373.953125" y="609.453125" type="curve" smooth="yes"/>
      <point x="384.375" y="619.078125"/>
      <point x="387.796875" y="623.71875"/>
      <point x="387.796875" y="632.75" type="curve" smooth="yes"/>
      <point x="387.796875" y="639.0"/>
      <point x="384.171875" y="647.21875"/>
      <point x="372.71875" y="647.21875" type="curve" smooth="yes"/>
      <point x="365.484375" y="647.21875"/>
      <point x="359.84375" y="643.8125"/>
      <point x="345.015625" y="631.78125" type="curve" smooth="yes"/>
      <point x="263.671875" y="563.609375"/>
      <point x="162.359375" y="514.84375"/>
      <point x="96.640625" y="493.875" type="curve" smooth="yes"/>
      <point x="82.578125" y="489.65625"/>
      <point x="73.125" y="485.4375"/>
      <point x="73.125" y="474.5625" type="curve" smooth="yes"/>
      <point x="73.125" y="464.5"/>
      <point x="80.984375" y="459.484375"/>
    </contour>
  </outline>
</glyph>
<glyph name="uni07A8" format="2">
  <unicode hex="07A8"/>
  <outline>
    <contour>
      <point x="-33.734375" y="-295.609375" type="curve" smooth="yes"/>
      <point x="-24.515625" y="-295.609375"/>
      <point x="-10.703125" y="-292.609375"/>
      <point x="3.71875" y="-287.203125" type="curve" smooth="yes"/>
      <point x="79.453125" y="-258.234375"/>
      <point x="224.609375" y="-186.234375"/>
      <point x="269.984375" y="-145.640625" type="curve" smooth="yes"/>
      <point x="280.40625" y="-136.015625"/>
      <point x="283.828125" y="-131.375"/>
      <point x="283.828125" y="-122.34375" type="curve" smooth="yes"/>
      <point x="283.828125" y="-116.09375"/>
      <point x="280.203125" y="-107.875"/>
      <point x="268.75" y="-107.875" type="curve" smooth="yes"/>
      <point x="261.515625" y="-107.875"/>
      <point x="256.078125" y="-111.484375"/>
      <point x="241.046875" y="-123.3125" type="curve" smooth="yes"/>
      <point x="153.5" y="-191.484375"/>
      <point x="43.390625" y="-240.25"/>
      <point x="-27.328125" y="-261.21875" type="curve" smooth="yes"/>
      <point x="-41.390625" y="-265.234375"/>
      <point x="-50.84375" y="-269.65625"/>
      <point x="-50.84375" y="-280.53125" type="curve" smooth="yes"/>
      <point x="-50.84375" y="-290.59375"/>
      <point x="-42.984375" y="-295.609375"/>
    </contour>
  </outline>
</glyph>
<glyph name="uni07A9" format="2">
  <unicode hex="07A9"/>
  <outline>
    <contour>
      <point x="27.46875" y="-280.828125" type="curve" smooth="yes"/>
      <point x="36.6875" y="-280.828125"/>
      <point x="50.5" y="-277.828125"/>
      <point x="64.921875" y="-272.421875" type="curve" smooth="yes"/>
      <point x="135.453125" y="-245.453125"/>
      <point x="265.8125" y="-171.453125"/>
      <point x="311.1875" y="-130.859375" type="curve" smooth="yes"/>
      <point x="321.609375" y="-121.234375"/>
      <point x="325.03125" y="-116.59375"/>
      <point x="325.03125" y="-107.5625" type="curve" smooth="yes"/>
      <point x="325.03125" y="-101.3125"/>
      <point x="321.40625" y="-93.09375"/>
      <point x="309.953125" y="-93.09375" type="curve" smooth="yes"/>
      <point x="302.71875" y="-93.09375"/>
      <point x="297.28125" y="-96.703125"/>
      <point x="282.25" y="-108.53125" type="curve" smooth="yes"/>
      <point x="198.703125" y="-173.703125"/>
      <point x="99.59375" y="-227.0625"/>
      <point x="33.875" y="-246.4375" type="curve" smooth="yes"/>
      <point x="19.8125" y="-250.65625"/>
      <point x="10.359375" y="-254.875"/>
      <point x="10.359375" y="-265.75" type="curve" smooth="yes"/>
      <point x="10.359375" y="-275.8125"/>
      <point x="18.21875" y="-280.828125"/>
    </contour>
    <contour>
      <point x="90.234375" y="-413.203125" type="curve" smooth="yes"/>
      <point x="99.453125" y="-413.203125"/>
      <point x="113.265625" y="-410.203125"/>
      <point x="127.6875" y="-404.796875" type="curve" smooth="yes"/>
      <point x="198.21875" y="-377.828125"/>
      <point x="328.578125" y="-303.828125"/>
      <point x="373.953125" y="-263.234375" type="curve" smooth="yes"/>
      <point x="384.375" y="-253.609375"/>
      <point x="387.796875" y="-248.96875"/>
      <point x="387.796875" y="-239.9375" type="curve" smooth="yes"/>
      <point x="387.796875" y="-233.6875"/>
      <point x="384.171875" y="-225.46875"/>
      <point x="372.71875" y="-225.46875" type="curve" smooth="yes"/>
      <point x="365.484375" y="-225.46875"/>
      <point x="360.046875" y="-229.078125"/>
      <point x="345.015625" y="-240.90625" type="curve" smooth="yes"/>
      <point x="261.46875" y="-306.078125"/>
      <point x="162.359375" y="-359.4375"/>
      <point x="96.640625" y="-378.8125" type="curve" smooth="yes"/>
      <point x="82.578125" y="-383.03125"/>
      <point x="73.125" y="-387.25"/>
      <point x="73.125" y="-398.125" type="curve" smooth="yes"/>
      <point x="73.125" y="-408.1875"/>
      <point x="80.984375" y="-413.203125"/>
    </contour>
  </outline>
</glyph>
<glyph name="uni07AA" format="2">
  <unicode hex="07AA"/>
  <outline>
    <contour>
      <point x="35.28125" y="446.734375" type="curve" smooth="yes"/>
      <point x="63.5" y="446.734375"/>
      <point x="136.390625" y="476.296875"/>
      <point x="205.0" y="519.90625" type="curve" smooth="yes"/>
      <point x="274.40625" y="564.3125"/>
      <point x="296.203125" y="587.96875"/>
      <point x="296.203125" y="613.21875" type="curve" smooth="yes"/>
      <point x="296.203125" y="642.671875"/>
      <point x="215.375" y="668.265625"/>
      <point x="126.4375" y="668.265625" type="curve" smooth="yes"/>
      <point x="73.640625" y="668.265625"/>
      <point x="55.140625" y="659.859375"/>
      <point x="55.140625" y="646.375" type="curve" smooth="yes"/>
      <point x="55.140625" y="636.921875"/>
      <point x="61.953125" y="630.09375"/>
      <point x="81.84375" y="630.09375" type="curve" smooth="yes"/>
      <point x="98.84375" y="630.09375"/>
      <point x="119.421875" y="633.484375"/>
      <point x="144.0" y="633.484375" type="curve" smooth="yes"/>
      <point x="188.3125" y="633.484375"/>
      <point x="243.03125" y="623.296875"/>
      <point x="261.59375" y="606.140625" type="curve"/>
      <point x="239.375" y="581.921875"/>
      <point x="158.90625" y="523.484375"/>
      <point x="49.8125" y="490.109375" type="curve" smooth="yes"/>
      <point x="24.171875" y="482.09375"/>
      <point x="13.953125" y="475.28125"/>
      <point x="13.953125" y="464.015625" type="curve" smooth="yes"/>
      <point x="13.953125" y="452.359375"/>
      <point x="20.796875" y="446.734375"/>
    </contour>
  </outline>
</glyph>
<glyph name="uni07AB" format="2">
  <unicode hex="07AB"/>
  <outline>
    <contour>
      <point x="325.890625" y="446.734375" type="curve" smooth="yes"/>
      <point x="354.109375" y="446.734375"/>
      <point x="427.0" y="476.296875"/>
      <point x="495.609375" y="519.90625" type="curve" smooth="yes"/>
      <point x="565.21875" y="564.3125"/>
      <point x="586.8125" y="587.96875"/>
      <point x="586.8125" y="613.21875" type="curve" smooth="yes"/>
      <point x="586.8125" y="642.671875"/>
      <point x="505.984375" y="668.265625"/>
      <point x="417.046875" y="668.265625" type="curve" smooth="yes"/>
      <point x="364.25" y="668.265625"/>
      <point x="345.75" y="659.859375"/>
      <point x="345.75" y="646.375" type="curve" smooth="yes"/>
      <point x="345.75" y="636.921875"/>
      <point x="352.5625" y="630.09375"/>
      <point x="372.453125" y="630.09375" type="curve" smooth="yes"/>
      <point x="389.453125" y="630.09375"/>
      <point x="409.828125" y="633.484375"/>
      <point x="434.609375" y="633.484375" type="curve" smooth="yes"/>
      <point x="478.71875" y="633.484375"/>
      <point x="533.640625" y="623.296875"/>
      <point x="552.203125" y="606.140625" type="curve"/>
      <point x="529.984375" y="581.921875"/>
      <point x="449.515625" y="523.484375"/>
      <point x="340.421875" y="490.109375" type="curve" smooth="yes"/>
      <point x="314.78125" y="482.09375"/>
      <point x="304.5625" y="475.28125"/>
      <point x="304.5625" y="464.015625" type="curve" smooth="yes"/>
      <point x="304.5625" y="452.359375"/>
      <point x="311.40625" y="446.734375"/>
    </contour>
    <contour>
      <point x="35.28125" y="446.734375" type="curve" smooth="yes"/>
      <point x="63.5" y="446.734375"/>
      <point x="136.390625" y="476.5"/>
      <point x="205.0" y="519.90625" type="curve" smooth="yes"/>
      <point x="274.609375" y="564.3125"/>
      <point x="296.203125" y="587.96875"/>
      <point x="296.203125" y="613.21875" type="curve" smooth="yes"/>
      <point x="296.203125" y="642.671875"/>
      <point x="215.375" y="668.265625"/>
      <point x="126.4375" y="668.265625" type="curve" smooth="yes"/>
      <point x="73.640625" y="668.265625"/>
      <point x="55.140625" y="659.859375"/>
      <point x="55.140625" y="646.375" type="curve" smooth="yes"/>
      <point x="55.140625" y="636.921875"/>
      <point x="61.953125" y="630.09375"/>
      <point x="81.84375" y="630.09375" type="curve" smooth="yes"/>
      <point x="98.84375" y="630.09375"/>
      <point x="119.421875" y="633.484375"/>
      <point x="144.0" y="633.484375" type="curve" smooth="yes"/>
      <point x="188.3125" y="633.484375"/>
      <point x="243.03125" y="623.296875"/>
      <point x="261.59375" y="606.140625" type="curve"/>
      <point x="239.375" y="581.921875"/>
      <point x="158.90625" y="523.484375"/>
      <point x="49.8125" y="490.109375" type="curve" smooth="yes"/>
      <point x="24.171875" y="482.09375"/>
      <point x="13.953125" y="475.28125"/>
      <point x="13.953125" y="464.015625" type="curve" smooth="yes"/>
      <point x="13.953125" y="452.359375"/>
      <point x="20.796875" y="446.734375"/>
    </contour>
  </outline>
</glyph>
<glyph name="uni07AC" format="2">
  <unicode hex="07AC"/>
  <outline>
    <contour>
      <point x="165.53125" y="469.84375" type="curve" smooth="yes"/>
      <point x="232.25" y="469.84375"/>
      <point x="253.59375" y="478.640625"/>
      <point x="253.59375" y="493.140625" type="curve" smooth="yes"/>
      <point x="253.59375" y="502.59375"/>
      <point x="248.40625" y="510.640625"/>
      <point x="229.9375" y="510.640625" type="curve" smooth="yes"/>
      <point x="213.546875" y="510.640625"/>
      <point x="191.75" y="506.4375"/>
      <point x="168.1875" y="506.4375" type="curve" smooth="yes"/>
      <point x="121.03125" y="506.4375"/>
      <point x="69.953125" y="517.4375"/>
      <point x="50.984375" y="535.203125" type="curve"/>
      <point x="66.765625" y="557.015625"/>
      <point x="135.296875" y="614.703125"/>
      <point x="224.21875" y="647.734375" type="curve" smooth="yes"/>
      <point x="245.171875" y="655.125"/>
      <point x="254.0" y="658.75"/>
      <point x="254.0" y="669.390625" type="curve" smooth="yes"/>
      <point x="254.0" y="680.640625"/>
      <point x="247.359375" y="686.0625"/>
      <point x="235.515625" y="686.0625" type="curve" smooth="yes"/>
      <point x="209.6875" y="686.0625"/>
      <point x="154.71875" y="661.265625"/>
      <point x="94.953125" y="620.0625" type="curve" smooth="yes"/>
      <point x="34.53125" y="578.015625"/>
      <point x="13.546875" y="556.21875"/>
      <point x="13.546875" y="534.375" type="curve" smooth="yes"/>
      <point x="13.546875" y="499.546875"/>
      <point x="87.46875" y="469.84375"/>
    </contour>
  </outline>
</glyph>
<glyph name="uni07AD" format="2">
  <unicode hex="07AD"/>
  <outline>
    <contour>
      <point x="448.75" y="469.84375" type="curve" smooth="yes"/>
      <point x="515.46875" y="469.84375"/>
      <point x="537.015625" y="478.640625"/>
      <point x="537.015625" y="493.140625" type="curve" smooth="yes"/>
      <point x="537.015625" y="502.59375"/>
      <point x="531.625" y="510.640625"/>
      <point x="513.15625" y="510.640625" type="curve" smooth="yes"/>
      <point x="496.765625" y="510.640625"/>
      <point x="474.96875" y="506.4375"/>
      <point x="451.40625" y="506.4375" type="curve" smooth="yes"/>
      <point x="404.25" y="506.4375"/>
      <point x="353.171875" y="517.4375"/>
      <point x="334.203125" y="535.203125" type="curve"/>
      <point x="349.984375" y="557.015625"/>
      <point x="418.515625" y="614.703125"/>
      <point x="507.4375" y="647.734375" type="curve" smooth="yes"/>
      <point x="528.390625" y="655.125"/>
      <point x="537.21875" y="658.75"/>
      <point x="537.21875" y="669.390625" type="curve" smooth="yes"/>
      <point x="537.21875" y="680.640625"/>
      <point x="530.578125" y="686.0625"/>
      <point x="518.734375" y="686.0625" type="curve" smooth="yes"/>
      <point x="492.90625" y="686.0625"/>
      <point x="437.9375" y="661.0625"/>
      <point x="378.171875" y="620.0625" type="curve" smooth="yes"/>
      <point x="317.953125" y="578.21875"/>
      <point x="296.765625" y="556.21875"/>
      <point x="296.765625" y="534.375" type="curve" smooth="yes"/>
      <point x="296.765625" y="499.546875"/>
      <point x="370.6875" y="469.84375"/>
    </contour>
    <contour>
      <point x="165.53125" y="469.84375" type="curve" smooth="yes"/>
      <point x="232.25" y="469.84375"/>
      <point x="253.59375" y="478.640625"/>
      <point x="253.59375" y="493.140625" type="curve" smooth="yes"/>
      <point x="253.59375" y="502.59375"/>
      <point x="248.40625" y="510.640625"/>
      <point x="229.9375" y="510.640625" type="curve" smooth="yes"/>
      <point x="213.546875" y="510.640625"/>
      <point x="191.75" y="506.4375"/>
      <point x="168.1875" y="506.4375" type="curve" smooth="yes"/>
      <point x="121.03125" y="506.4375"/>
      <point x="69.953125" y="517.4375"/>
      <point x="50.984375" y="535.203125" type="curve"/>
      <point x="66.765625" y="557.015625"/>
      <point x="135.296875" y="614.703125"/>
      <point x="224.21875" y="647.734375" type="curve" smooth="yes"/>
      <point x="245.171875" y="655.125"/>
      <point x="254.0" y="658.75"/>
      <point x="254.0" y="669.390625" type="curve" smooth="yes"/>
      <point x="254.0" y="680.640625"/>
      <point x="247.359375" y="686.0625"/>
      <point x="235.515625" y="686.0625" type="curve" smooth="yes"/>
      <point x="209.6875" y="686.0625"/>
      <point x="154.71875" y="661.265625"/>
      <point x="94.953125" y="620.0625" type="curve" smooth="yes"/>
      <point x="34.734375" y="578.21875"/>
      <point x="13.546875" y="556.21875"/>
      <point x="13.546875" y="534.375" type="curve" smooth="yes"/>
      <point x="13.546875" y="499.546875"/>
      <point x="87.46875" y="469.84375"/>
    </contour>
  </outline>
</glyph>
<glyph name="uni07AE" format="2">
  <unicode hex="07AE"/>
  <outline>
    <contour>
      <point x="35.28125" y="446.734375" type="curve" smooth="yes"/>
      <point x="65.484375" y="446.734375"/>
      <point x="141.359375" y="479.28125"/>
      <point x="207.5625" y="521.28125" type="curve"/>
      <point x="219.59375" y="491.671875"/>
      <point x="287.3125" y="469.84375"/>
      <point x="356.109375" y="469.84375" type="curve" smooth="yes"/>
      <point x="423.03125" y="469.84375"/>
      <point x="444.375" y="478.640625"/>
      <point x="444.375" y="493.140625" type="curve" smooth="yes"/>
      <point x="444.375" y="502.59375"/>
      <point x="438.984375" y="510.640625"/>
      <point x="420.515625" y="510.640625" type="curve" smooth="yes"/>
      <point x="404.125" y="510.640625"/>
      <point x="382.328125" y="506.4375"/>
      <point x="358.96875" y="506.4375" type="curve" smooth="yes"/>
      <point x="311.609375" y="506.4375"/>
      <point x="260.734375" y="517.4375"/>
      <point x="241.5625" y="535.203125" type="curve"/>
      <point x="275.078125" y="576.140625"/>
      <point x="348.1875" y="621.875"/>
      <point x="414.796875" y="647.734375" type="curve" smooth="yes"/>
      <point x="435.953125" y="655.328125"/>
      <point x="444.578125" y="659.546875"/>
      <point x="444.578125" y="669.390625" type="curve" smooth="yes"/>
      <point x="444.578125" y="680.640625"/>
      <point x="438.140625" y="686.0625"/>
      <point x="426.296875" y="686.0625" type="curve" smooth="yes"/>
      <point x="401.671875" y="686.0625"/>
      <point x="349.109375" y="662.875"/>
      <point x="291.359375" y="624.6875" type="curve"/>
      <point x="275.90625" y="648.09375"/>
      <point x="205.140625" y="668.265625"/>
      <point x="126.4375" y="668.265625" type="curve" smooth="yes"/>
      <point x="73.640625" y="668.265625"/>
      <point x="55.140625" y="659.859375"/>
      <point x="55.140625" y="646.375" type="curve" smooth="yes"/>
      <point x="55.140625" y="636.921875"/>
      <point x="61.953125" y="630.09375"/>
      <point x="81.84375" y="630.09375" type="curve" smooth="yes"/>
      <point x="98.84375" y="630.09375"/>
      <point x="119.421875" y="633.484375"/>
      <point x="144.0" y="633.484375" type="curve" smooth="yes"/>
      <point x="188.3125" y="633.484375"/>
      <point x="243.03125" y="623.296875"/>
      <point x="261.59375" y="606.140625" type="curve"/>
      <point x="233.0" y="569.96875"/>
      <point x="121.453125" y="512.328125"/>
      <point x="49.8125" y="490.109375" type="curve" smooth="yes"/>
      <point x="23.375" y="482.09375"/>
      <point x="13.953125" y="475.28125"/>
      <point x="13.953125" y="464.015625" type="curve" smooth="yes"/>
      <point x="13.953125" y="452.359375"/>
      <point x="20.796875" y="446.734375"/>
    </contour>
  </outline>
</glyph>
<glyph name="uni07AF" format="2">
  <unicode hex="07AF"/>
  <outline>
    <contour>
      <point x="140.390625" y="450.71875" type="curve" smooth="yes"/>
      <point x="239.234375" y="450.71875"/>
      <point x="297.609375" y="495.9375"/>
      <point x="297.609375" y="515.203125" type="curve" smooth="yes"/>
      <point x="297.609375" y="526.03125"/>
      <point x="291.390625" y="530.65625"/>
      <point x="282.75" y="530.65625" type="curve" smooth="yes"/>
      <point x="269.09375" y="530.65625"/>
      <point x="232.328125" y="485.5"/>
      <point x="144.390625" y="485.5" type="curve" smooth="yes"/>
      <point x="95.28125" y="485.5"/>
      <point x="44.578125" y="500.484375"/>
      <point x="44.578125" y="558.625" type="curve" smooth="yes"/>
      <point x="44.578125" y="666.046875"/>
      <point x="225.1875" y="800.28125"/>
      <point x="338.953125" y="800.28125" type="curve" smooth="yes"/>
      <point x="383.859375" y="800.28125"/>
      <point x="393.234375" y="781.5"/>
      <point x="393.234375" y="759.359375" type="curve" smooth="yes"/>
      <point x="393.234375" y="716.84375"/>
      <point x="361.875" y="695.0625"/>
      <point x="340.90625" y="676.09375" type="curve" smooth="yes"/>
      <point x="324.453125" y="662.453125"/>
      <point x="311.28125" y="651.859375"/>
      <point x="311.28125" y="641.21875" type="curve" smooth="yes"/>
      <point x="311.28125" y="631.171875"/>
      <point x="318.328125" y="623.328125"/>
      <point x="330.5625" y="623.328125" type="curve" smooth="yes"/>
      <point x="341.765625" y="623.328125"/>
      <point x="359.984375" y="638.71875"/>
      <point x="375.171875" y="652.109375" type="curve" smooth="yes"/>
      <point x="394.625" y="669.15625"/>
      <point x="429.84375" y="709.34375"/>
      <point x="429.84375" y="763.625" type="curve" smooth="yes"/>
      <point x="429.84375" y="808.25"/>
      <point x="398.796875" y="835.0625"/>
      <point x="342.9375" y="835.0625" type="curve" smooth="yes"/>
      <point x="211.546875" y="835.0625"/>
      <point x="9.5625" y="693.625"/>
      <point x="9.5625" y="552.984375" type="curve" smooth="yes"/>
      <point x="9.5625" y="475.9375"/>
      <point x="79.578125" y="450.71875"/>
    </contour>
  </outline>
</glyph>
<glyph name="uni07B0" format="2">
  <unicode hex="07B0"/>
  <outline>
    <contour>
      <point x="124.796875" y="449.125" type="curve" smooth="yes"/>
      <point x="216.625" y="449.125"/>
      <point x="313.0" y="529.34375"/>
      <point x="313.0" y="630.171875" type="curve" smooth="yes"/>
      <point x="313.0" y="681.015625"/>
      <point x="277.8125" y="712.84375"/>
      <point x="209.765625" y="712.84375" type="curve" smooth="yes"/>
      <point x="99.359375" y="712.84375"/>
      <point x="11.953125" y="629.21875"/>
      <point x="11.953125" y="550.390625" type="curve" smooth="yes"/>
      <point x="11.953125" y="491.953125"/>
      <point x="53.96875" y="449.125"/>
    </contour>
    <contour>
      <point x="131.59375" y="481.90625" type="curve" smooth="yes"/>
      <point x="73.46875" y="481.90625"/>
      <point x="47.359375" y="511.28125"/>
      <point x="47.359375" y="550.609375" type="curve" smooth="yes"/>
      <point x="47.359375" y="616.9375"/>
      <point x="117.015625" y="681.0625"/>
      <point x="200.75" y="681.0625" type="curve" smooth="yes"/>
      <point x="252.03125" y="681.0625"/>
      <point x="277.796875" y="660.265625"/>
      <point x="277.796875" y="623.328125" type="curve" smooth="yes"/>
      <point x="277.796875" y="546.421875"/>
      <point x="199.328125" y="481.90625"/>
    </contour>
  </outline>
</glyph>
<glyph name="uni07B1" format="2">
  <advance width="473.0"/>
  <unicode hex="07B1"/>
  <outline>
    <contour>
      <point x="218.609375" y="-188.75" type="curve" smooth="yes"/>
      <point x="286.546875" y="-188.75"/>
      <point x="341.71875" y="-172.578125"/>
      <point x="381.3125" y="-150.78125" type="curve" smooth="yes"/>
      <point x="403.375" y="-138.546875"/>
      <point x="421.78125" y="-124.71875"/>
      <point x="421.78125" y="-111.875" type="curve" smooth="yes"/>
      <point x="421.78125" y="-103.8125"/>
      <point x="416.34375" y="-97.984375"/>
      <point x="406.296875" y="-97.984375" type="curve" smooth="yes"/>
      <point x="398.296875" y="-97.984375"/>
      <point x="390.484375" y="-104.171875"/>
      <point x="375.078125" y="-112.78125" type="curve" smooth="yes"/>
      <point x="318.109375" y="-144.578125"/>
      <point x="281.140625" y="-155.5625"/>
      <point x="219.625" y="-155.5625" type="curve" smooth="yes"/>
      <point x="145.234375" y="-155.5625"/>
      <point x="77.953125" y="-134.796875"/>
      <point x="77.953125" y="-81.046875" type="curve" smooth="yes"/>
      <point x="77.953125" y="-38.078125"/>
      <point x="135.75" y="-1.109375"/>
      <point x="235.15625" y="56.28125" type="curve" smooth="yes"/>
      <point x="360.375" y="128.765625"/>
      <point x="449.375" y="184.21875"/>
      <point x="449.375" y="270.421875" type="curve" smooth="yes"/>
      <point x="449.375" y="334.46875"/>
      <point x="380.5625" y="367.09375"/>
      <point x="312.546875" y="367.09375" type="curve" smooth="yes"/>
      <point x="230.140625" y="367.09375"/>
      <point x="134.53125" y="318.46875"/>
      <point x="134.53125" y="245.03125" type="curve" smooth="yes"/>
      <point x="134.53125" y="184.59375"/>
      <point x="216.03125" y="154.59375"/>
      <point x="307.328125" y="135.21875" type="curve"/>
      <point x="287.5" y="123.0"/>
      <point x="214.265625" y="79.109375"/>
      <point x="182.28125" y="60.515625" type="curve" smooth="yes"/>
      <point x="117.28125" y="22.515625"/>
      <point x="43.34375" y="-24.859375"/>
      <point x="43.34375" y="-82.0625" type="curve" smooth="yes"/>
      <point x="43.34375" y="-157.53125"/>
      <point x="128.59375" y="-188.75"/>
    </contour>
    <contour>
      <point x="343.328125" y="159.78125" type="curve"/>
      <point x="264.640625" y="174.53125"/>
      <point x="169.953125" y="200.453125"/>
      <point x="169.953125" y="245.421875" type="curve" smooth="yes"/>
      <point x="169.953125" y="296.359375"/>
      <point x="246.84375" y="333.90625"/>
      <point x="307.75" y="333.90625" type="curve" smooth="yes"/>
      <point x="382.40625" y="333.90625"/>
      <point x="414.75" y="302.15625"/>
      <point x="414.75" y="267.015625" type="curve" smooth="yes"/>
      <point x="414.75" y="222.875"/>
      <point x="382.84375" y="190.53125"/>
    </contour>
  </outline>
</glyph>
<glyph name="uni200F" format="2">
  <unicode hex="200F"/>
  <outline>
    <contour>
      <point x="-18.0" y="89.0" type="line"/>
      <point x="17.0" y="89.0" type="line"/>
      <point x="17.0" y="727.0" type="line"/>
      <point x="-147.0" y="727.0" type="line"/>
      <point x="-81.0" y="790.0" type="line"/>
      <point x="-104.0" y="814.0" type="line"/>
      <point x="-210.0" y="709.0" type="line"/>
      <point x="-104.0" y="604.0" type="line"/>
      <point x="-81.0" y="628.0" type="line"/>
      <point x="-147.0" y="692.0" type="line"/>
      <point x="-18.0" y="692.0" type="line"/>
    </contour>
  </outline>
</glyph>
<glyph name="quoteleft" format="2">
  <advance width="342.0"/>
  <unicode hex="2018"/>
  <outline>
    <contour>
      <point x="131.359375" y="591.875" type="curve" smooth="yes"/>
      <point x="158.828125" y="591.875"/>
      <point x="179.90625" y="612.15625"/>
      <point x="179.90625" y="635.03125" type="curve" smooth="yes"/>
      <point x="179.90625" y="653.484375"/>
      <point x="162.6875" y="668.125"/>
      <point x="137.453125" y="672.515625" type="curve"/>
      <point x="149.859375" y="708.5"/>
      <point x="172.0625" y="738.671875"/>
      <point x="182.90625" y="750.90625" type="curve" smooth="yes"/>
      <point x="190.3125" y="759.90625"/>
      <point x="193.921875" y="764.109375"/>
      <point x="193.921875" y="769.53125" type="curve" smooth="yes"/>
      <point x="193.921875" y="772.734375"/>
      <point x="190.125" y="777.984375"/>
      <point x="183.265625" y="777.984375" type="curve" smooth="yes"/>
      <point x="174.234375" y="777.984375"/>
      <point x="162.828125" y="767.96875"/>
      <point x="147.640625" y="747.609375" type="curve" smooth="yes"/>
      <point x="132.765625" y="729.96875"/>
      <point x="89.46875" y="666.46875"/>
      <point x="89.46875" y="632.390625" type="curve" smooth="yes"/>
      <point x="89.46875" y="603.125"/>
      <point x="106.515625" y="591.875"/>
    </contour>
  </outline>
</glyph>
<glyph name="quoteright" format="2">
  <advance width="342.0"/>
  <unicode hex="2019"/>
  <outline>
    <contour>
      <point x="203.84375" y="592.671875" type="curve" smooth="yes"/>
      <point x="213.484375" y="592.671875"/>
      <point x="224.28125" y="602.890625"/>
      <point x="239.46875" y="623.046875" type="curve" smooth="yes"/>
      <point x="253.734375" y="640.078125"/>
      <point x="297.640625" y="704.1875"/>
      <point x="297.640625" y="738.265625" type="curve" smooth="yes"/>
      <point x="297.640625" y="767.53125"/>
      <point x="280.390625" y="778.78125"/>
      <point x="255.75" y="778.78125" type="curve" smooth="yes"/>
      <point x="228.28125" y="778.78125"/>
      <point x="207.203125" y="758.5"/>
      <point x="207.203125" y="735.625" type="curve" smooth="yes"/>
      <point x="207.203125" y="717.375"/>
      <point x="224.421875" y="702.53125"/>
      <point x="249.453125" y="698.140625" type="curve"/>
      <point x="237.25" y="662.359375"/>
      <point x="214.84375" y="632.1875"/>
      <point x="204.203125" y="619.953125" type="curve" smooth="yes"/>
      <point x="196.59375" y="610.75"/>
      <point x="193.1875" y="606.546875"/>
      <point x="193.1875" y="601.921875" type="curve" smooth="yes"/>
      <point x="193.1875" y="597.125"/>
      <point x="196.984375" y="592.671875"/>
    </contour>
  </outline>
</glyph>
<glyph name="quotedblleft" format="2">
  <advance width="562.0"/>
  <unicode hex="201C"/>
  <outline>
    <contour>
      <point x="336.8125" y="591.875" type="curve" smooth="yes"/>
      <point x="364.484375" y="591.875"/>
      <point x="385.5625" y="612.15625"/>
      <point x="385.5625" y="635.03125" type="curve" smooth="yes"/>
      <point x="385.5625" y="653.484375"/>
      <point x="368.140625" y="668.125"/>
      <point x="343.109375" y="672.515625" type="curve"/>
      <point x="355.3125" y="708.5"/>
      <point x="377.71875" y="738.671875"/>
      <point x="388.5625" y="750.90625" type="curve" smooth="yes"/>
      <point x="395.96875" y="759.90625"/>
      <point x="399.375" y="764.109375"/>
      <point x="399.375" y="769.53125" type="curve" smooth="yes"/>
      <point x="399.375" y="772.734375"/>
      <point x="395.78125" y="777.984375"/>
      <point x="388.921875" y="777.984375" type="curve" smooth="yes"/>
      <point x="379.890625" y="777.984375"/>
      <point x="368.28125" y="767.96875"/>
      <point x="353.09375" y="747.609375" type="curve" smooth="yes"/>
      <point x="339.03125" y="730.78125"/>
      <point x="295.125" y="666.46875"/>
      <point x="295.125" y="632.390625" type="curve" smooth="yes"/>
      <point x="295.125" y="603.125"/>
      <point x="312.171875" y="591.875"/>
    </contour>
    <contour>
      <point x="155.265625" y="591.875" type="curve" smooth="yes"/>
      <point x="182.734375" y="591.875"/>
      <point x="203.8125" y="612.15625"/>
      <point x="203.8125" y="635.03125" type="curve" smooth="yes"/>
      <point x="203.8125" y="653.484375"/>
      <point x="186.59375" y="668.125"/>
      <point x="161.359375" y="672.515625" type="curve"/>
      <point x="173.765625" y="708.5"/>
      <point x="195.96875" y="738.671875"/>
      <point x="206.8125" y="750.90625" type="curve" smooth="yes"/>
      <point x="214.21875" y="759.90625"/>
      <point x="217.828125" y="764.109375"/>
      <point x="217.828125" y="769.53125" type="curve" smooth="yes"/>
      <point x="217.828125" y="772.734375"/>
      <point x="214.03125" y="777.984375"/>
      <point x="207.171875" y="777.984375" type="curve" smooth="yes"/>
      <point x="198.140625" y="777.984375"/>
      <point x="186.734375" y="767.96875"/>
      <point x="171.546875" y="747.609375" type="curve" smooth="yes"/>
      <point x="157.28125" y="730.78125"/>
      <point x="113.375" y="666.46875"/>
      <point x="113.375" y="632.390625" type="curve" smooth="yes"/>
      <point x="113.375" y="603.125"/>
      <point x="130.421875" y="591.875"/>
    </contour>
  </outline>
</glyph>
<glyph name="quotedblright" format="2">
  <advance width="562.0"/>
  <unicode hex="201D"/>
  <outline>
    <contour>
      <point x="354.3125" y="592.671875" type="curve" smooth="yes"/>
      <point x="363.34375" y="592.671875"/>
      <point x="375.15625" y="602.6875"/>
      <point x="390.140625" y="623.046875" type="curve" smooth="yes"/>
      <point x="404.40625" y="640.078125"/>
      <point x="448.109375" y="704.1875"/>
      <point x="448.109375" y="738.265625" type="curve" smooth="yes"/>
      <point x="448.109375" y="767.53125"/>
      <point x="431.0625" y="778.78125"/>
      <point x="406.421875" y="778.78125" type="curve" smooth="yes"/>
      <point x="378.75" y="778.78125"/>
      <point x="357.671875" y="758.5"/>
      <point x="357.671875" y="735.625" type="curve" smooth="yes"/>
      <point x="357.671875" y="717.375"/>
      <point x="375.09375" y="702.53125"/>
      <point x="400.125" y="698.140625" type="curve"/>
      <point x="387.921875" y="662.359375"/>
      <point x="365.515625" y="632.1875"/>
      <point x="354.875" y="619.953125" type="curve" smooth="yes"/>
      <point x="347.265625" y="610.75"/>
      <point x="343.859375" y="606.546875"/>
      <point x="343.859375" y="601.921875" type="curve" smooth="yes"/>
      <point x="343.859375" y="597.125"/>
      <point x="347.453125" y="592.671875"/>
    </contour>
    <contour>
      <point x="172.765625" y="592.671875" type="curve" smooth="yes"/>
      <point x="181.796875" y="592.671875"/>
      <point x="193.203125" y="602.6875"/>
      <point x="208.390625" y="623.046875" type="curve" smooth="yes"/>
      <point x="222.65625" y="640.078125"/>
      <point x="266.5625" y="704.1875"/>
      <point x="266.5625" y="738.265625" type="curve" smooth="yes"/>
      <point x="266.5625" y="767.53125"/>
      <point x="249.3125" y="778.78125"/>
      <point x="224.671875" y="778.78125" type="curve" smooth="yes"/>
      <point x="197.203125" y="778.78125"/>
      <point x="176.125" y="758.5"/>
      <point x="176.125" y="735.625" type="curve" smooth="yes"/>
      <point x="176.125" y="717.375"/>
      <point x="193.34375" y="702.53125"/>
      <point x="218.375" y="698.140625" type="curve"/>
      <point x="206.171875" y="662.359375"/>
      <point x="183.765625" y="632.1875"/>
      <point x="173.125" y="619.953125" type="curve" smooth="yes"/>
      <point x="165.515625" y="610.75"/>
      <point x="162.109375" y="606.546875"/>
      <point x="162.109375" y="601.921875" type="curve" smooth="yes"/>
      <point x="162.109375" y="597.125"/>
      <point x="165.90625" y="592.671875"/>
    </contour>
  </outline>
</glyph>
<glyph name="uniFDF2" format="2">
  <advance width="971.0625"/>
  <unicode hex="FDF2"/>
  <outline>
    <contour>
      <point x="416.0" y="0.0" type="curve" smooth="yes"/>
      <point x="460.625" y="0.0"/>
      <point x="482.640625" y="6.0"/>
      <point x="521.0625" y="30.0" type="curve"/>
      <point x="541.078125" y="10.796875"/>
      <point x="569.5" y="2.0"/>
      <point x="604.328125" y="2.0" type="curve" smooth="yes"/>
      <point x="674.890625" y="2.0"/>
      <point x="716.46875" y="36.296875"/>
      <point x="732.25" y="62.671875" type="curve" smooth="yes"/>
      <point x="747.671875" y="89.3125"/>
      <point x="751.09375" y="106.765625"/>
      <point x="751.09375" y="125.765625" type="curve"/>
      <point x="749.09375" y="205.984375"/>
      <point x="745.09375" y="289.140625"/>
      <point x="732.09375" y="565.0" type="curve"/>
      <point x="717.25" y="552.390625"/>
      <point x="707.609375" y="541.765625"/>
      <point x="695.984375" y="524.765625" type="curve"/>
      <point x="706.8125" y="377.140625"/>
      <point x="718.21875" y="226.609375"/>
      <point x="726.03125" y="86.8125" type="curve"/>
      <point x="687.25" y="53.28125"/>
      <point x="651.484375" y="37.71875"/>
      <point x="606.71875" y="37.71875" type="curve" smooth="yes"/>
      <point x="579.296875" y="37.71875"/>
      <point x="558.078125" y="44.921875"/>
      <point x="535.0625" y="58.125" type="curve"/>
      <point x="523.0625" y="462.21875" type="line"/>
      <point x="504.03125" y="451.1875"/>
      <point x="496.78125" y="445.546875"/>
      <point x="483.96875" y="431.9375" type="curve"/>
      <point x="510.796875" y="60.515625" type="line"/>
      <point x="477.796875" y="43.921875"/>
      <point x="448.0" y="36.125"/>
      <point x="414.0" y="36.125" type="curve" smooth="yes"/>
      <point x="380.0" y="36.125"/>
      <point x="351.0" y="42.53125"/>
      <point x="317.234375" y="58.125" type="curve"/>
      <point x="291.890625" y="378.09375" type="line"/>
      <point x="275.640625" y="368.859375"/>
      <point x="264.0" y="360.828125"/>
      <point x="253.96875" y="352.0" type="curve"/>
      <point x="258.96875" y="317.0" type="line"/>
      <point x="185.78125" y="287.0"/>
      <point x="113.015625" y="237.234375"/>
      <point x="83.640625" y="177.296875" type="curve" smooth="yes"/>
      <point x="75.015625" y="159.453125"/>
      <point x="68.0" y="144.59375"/>
      <point x="68.0" y="131.0" type="curve" smooth="yes"/>
      <point x="68.0" y="95.78125"/>
      <point x="170.609375" y="60.1875"/>
      <point x="257.0" y="56.375" type="curve"/>
      <point x="267.0" y="65.609375"/>
      <point x="277.796875" y="74.234375"/>
      <point x="286.59375" y="84.265625" type="curve"/>
      <point x="301.59375" y="21.015625"/>
      <point x="329.59375" y="0.0"/>
    </contour>
    <contour>
      <point x="285.78125" y="91.921875" type="curve"/>
      <point x="208.421875" y="92.921875"/>
      <point x="143.265625" y="104.515625"/>
      <point x="91.09375" y="140.71875" type="curve"/>
      <point x="123.671875" y="219.34375"/>
      <point x="191.8125" y="259.109375"/>
      <point x="262.984375" y="288.875" type="curve"/>
      <point x="269.1875" y="223.953125"/>
      <point x="279.578125" y="156.84375"/>
    </contour>
    <contour>
      <point x="437.0625" y="508.1875" type="curve" smooth="yes"/>
      <point x="458.859375" y="508.1875"/>
      <point x="480.65625" y="525.96875"/>
      <point x="487.875" y="552.5625" type="curve"/>
      <point x="498.46875" y="536.78125"/>
      <point x="515.859375" y="530.984375"/>
      <point x="528.453125" y="530.984375" type="curve" smooth="yes"/>
      <point x="560.859375" y="530.984375"/>
      <point x="585.0625" y="540.203125"/>
      <point x="585.0625" y="572.21875" type="curve" smooth="yes"/>
      <point x="585.0625" y="590.21875"/>
      <point x="579.0625" y="636.21875"/>
      <point x="564.0625" y="665.21875" type="curve"/>
      <point x="552.046875" y="662.8125"/>
      <point x="546.21875" y="654.78125"/>
      <point x="546.21875" y="641.375" type="curve"/>
      <point x="546.421875" y="632.171875" type="line"/>
      <point x="556.21875" y="608.1875"/>
      <point x="561.21875" y="591.796875"/>
      <point x="563.21875" y="583.203125" type="curve"/>
      <point x="560.421875" y="574.21875"/>
      <point x="549.828125" y="558.453125"/>
      <point x="535.0625" y="558.453125" type="curve" smooth="yes"/>
      <point x="504.0625" y="558.453125"/>
      <point x="496.0625" y="585.640625"/>
      <point x="492.0625" y="630.21875" type="curve"/>
      <point x="472.03125" y="617.0" type="line"/>
      <point x="473.03125" y="561.421875"/>
      <point x="469.234375" y="536.046875"/>
      <point x="440.859375" y="536.046875" type="curve" smooth="yes"/>
      <point x="425.0625" y="536.046875"/>
      <point x="414.671875" y="544.453125"/>
      <point x="414.671875" y="565.640625" type="curve" smooth="yes"/>
      <point x="414.671875" y="578.21875"/>
      <point x="416.671875" y="589.21875"/>
      <point x="418.671875" y="600.21875" type="curve"/>
      <point x="402.0625" y="605.21875" type="line"/>
      <point x="393.0625" y="588.21875"/>
      <point x="390.65625" y="576.0"/>
      <point x="390.65625" y="559.0" type="curve" smooth="yes"/>
      <point x="390.65625" y="528.78125"/>
      <point x="408.0625" y="508.1875"/>
    </contour>
    <contour>
      <point x="485.015625" y="661.40625" type="line"/>
      <point x="489.046875" y="679.609375"/>
      <point x="492.0625" y="700.625"/>
      <point x="492.0625" y="726.4375" type="curve" smooth="yes"/>
      <point x="492.0625" y="754.4375"/>
      <point x="490.0625" y="780.046875"/>
      <point x="482.078125" y="806.046875" type="curve"/>
      <point x="470.84375" y="803.4375"/>
      <point x="460.84375" y="796.828125"/>
      <point x="460.84375" y="778.21875" type="curve"/>
      <point x="460.84375" y="758.34375"/>
      <point x="475.03125" y="681.609375"/>
      <point x="475.03125" y="664.203125" type="curve"/>
    </contour>
    <contour>
      <point x="865.03125" y="26.0" type="curve"/>
      <point x="886.125" y="34.0" type="line"/>
      <point x="888.515625" y="148.921875"/>
      <point x="883.9375" y="481.15625"/>
      <point x="883.9375" y="536.78125" type="curve"/>
      <point x="911.125" y="555.78125" type="line"/>
      <point x="902.515625" y="572.453125"/>
      <point x="894.703125" y="588.328125"/>
      <point x="886.09375" y="605.0" type="curve"/>
      <point x="855.25" y="597.0"/>
      <point x="842.03125" y="576.0"/>
      <point x="842.03125" y="527.0" type="curve" smooth="yes"/>
      <point x="842.03125" y="478.0"/>
      <point x="861.03125" y="226.0"/>
    </contour>
  </outline>
</glyph>
